<?xml version="1.0" standalone="no"?>
<!DOCTYPE svg PUBLIC "-//W3C//DTD SVG 1.1//EN" "http://www.w3.org/Graphics/SVG/1.1/DTD/svg11.dtd" >
<svg xmlns="http://www.w3.org/2000/svg" xmlns:xlink="http://www.w3.org/1999/xlink" version="1.1">
<metadata></metadata>
<defs>
<font id="kenyan_coffeeitalic" horiz-adv-x="821" >
<font-face units-per-em="2048" ascent="1630" descent="-418" />
<missing-glyph horiz-adv-x="352" />
<glyph unicode="&#x28;C&#x29;" horiz-adv-x="1222" d="M127 195q0 70 25 178l186 872q27 129 66.5 207t107.5 120t174 54t270 12q131 0 222.5 -8t148.5 -30.5t83 -66.5t26 -114q0 -66 -23 -174l-186 -872q-29 -129 -67 -207t-107.5 -120t-177 -54t-273.5 -12q-131 0 -222 7t-147.5 30.5t-81 65.5t-24.5 112zM305 260 q0 -41 15.5 -66.5t53.5 -41t100.5 -21.5t158.5 -6q123 0 197.5 10t118.5 38t66.5 76t39.5 126l186 870q6 33 10 59.5t4 49.5q0 41 -15 68.5t-53 44t-101.5 22.5t-159.5 6q-121 0 -195 -10t-118 -38t-66.5 -77t-38.5 -125l-186 -870q-16 -72 -17 -115zM537 494q0 33 12 86 l102 485q12 55 26.5 89t39 51.5t62.5 22.5t98 5q86 0 120.5 -16.5t34.5 -69.5q0 -16 -3 -36.5t-7 -45.5l-29 -139h-121l25 123q4 16 4 24q0 31 -51 31q-35 0 -51.5 -11.5t-22.5 -43.5l-96 -455q-4 -20 -4 -27q0 -18 12 -24t41 -6q37 0 50.5 11t21.5 46l41 194h121l-43 -208 q-12 -59 -29 -93t-41.5 -51.5t-60 -22.5t-87.5 -5q-92 0 -128.5 15t-36.5 71z" />
<glyph unicode="&#x28;R&#x29;" horiz-adv-x="1222" d="M127 195q0 70 25 178l186 872q27 129 66.5 207t107.5 120t174 54t270 12q131 0 222.5 -8t148.5 -30.5t83 -66.5t26 -114q0 -66 -23 -174l-186 -872q-29 -129 -67 -207t-107.5 -120t-177 -54t-273.5 -12q-131 0 -222 7t-147.5 30.5t-81 65.5t-24.5 112zM305 260 q0 -41 15.5 -66.5t53.5 -41t100.5 -21.5t158.5 -6q123 0 197.5 10t118.5 38t66.5 76t39.5 126l186 870q6 33 10 59.5t4 49.5q0 41 -15 68.5t-53 44t-101.5 22.5t-159.5 6q-121 0 -195 -10t-118 -38t-66.5 -77t-38.5 -125l-186 -870q-16 -72 -17 -115zM489 391l189 883h205 q98 0 139 -17.5t41 -80.5q0 -20 -4 -46t-10 -59l-25 -115q-16 -68 -50 -90t-59 -28v-9q29 -6 43.5 -23.5t14.5 -55.5q0 -33 -8 -68l-62 -291h-143l65 303q6 33 6 51t-8 23.5t-24 5.5h-86l-82 -383h-142zM737 889h86q29 0 38 13t16 42l28 127q6 25 6 41q0 20 -11 26.5 t-40 6.5h-69z" />
<glyph horiz-adv-x="0" />
<glyph unicode="&#xd;" horiz-adv-x="329" />
<glyph horiz-adv-x="352" />
<glyph unicode=" "  horiz-adv-x="352" />
<glyph unicode="&#x09;" horiz-adv-x="352" />
<glyph unicode="&#xa0;" horiz-adv-x="352" />
<glyph unicode="!" horiz-adv-x="370" d="M78 0l57 270h215l-57 -270h-215zM186 387l220 1231h241l-299 -1231h-162z" />
<glyph unicode="&#x22;" horiz-adv-x="657" d="M313 1036l93 582h182l-154 -582h-121zM313 1036zM641 1036l93 582h182l-154 -582h-121z" />
<glyph unicode="#" horiz-adv-x="892" d="M115 0l149 461h-123l70 203h121l92 286h-141l67 201h142l153 467h143l-153 -467h186l152 467h145l-153 -467h122l-69 -201h-119l-94 -286h139l-65 -203h-142l-149 -461h-146l150 461h-184l-150 -461h-143zM475 664h184l95 286h-185z" />
<glyph unicode="$" d="M125 141q0 66 25 181l67 321h229l-67 -321q-12 -55 -12 -84q0 -33 18 -41.5t64 -8.5q33 0 53 5.5t34.5 19.5t22.5 40t19 69q20 100 33.5 161.5t19.5 95t8 48t2 24.5q0 37 -19.5 55.5t-66.5 43.5q-74 37 -124 65.5t-79.5 57t-43 58.5t-13.5 70q0 12 2 31t8 51.5t16.5 83 t26.5 127.5q20 100 44 164t59.5 101.5t87 54t127.5 20.5l28 131h183l-29 -131q104 -6 147 -38.5t43 -118.5q0 -66 -24 -183l-43 -200h-230l43 200q12 55 13 84q0 33 -18.5 41t-65.5 8q-33 0 -53.5 -5t-35 -19t-23.5 -41t-17 -68q-14 -66 -22.5 -105.5t-12.5 -61t-5 -31 t-1 -15.5q0 -35 22.5 -54t81.5 -48q70 -35 116 -62.5t74.5 -55t41 -58.5t12.5 -72q0 -16 -2 -36.5t-10.5 -63.5t-23.5 -117t-40 -192q-23 -100 -45 -164t-58 -101t-87.5 -53t-126.5 -20l-29 -131h-182l28 131q-102 6 -146 37.5t-44 119.5z" />
<glyph unicode="%" horiz-adv-x="1470" d="M260 0zM260 811q0 37 13 96l112 531q14 63 31 101t45.5 58.5t73.5 26.5t115 6q109 0 152.5 -17.5t43.5 -80.5q0 -37 -12 -94l-113 -531q-14 -66 -30.5 -103.5t-46 -58t-74.5 -26.5t-115 -6q-109 0 -152 16t-43 82zM317 0l1018 1618h160l-1018 -1618h-160zM430 875 q0 -20 11.5 -25.5t42.5 -5.5q20 0 32.5 2t20.5 9t12 19.5t8 32.5l113 531q4 10 4 18v17q0 16 -11 21t-40 5q-41 0 -54.5 -11t-21.5 -50l-112 -531q-2 -10 -3.5 -18t-1.5 -14zM960 86q0 37 13 96l112 531q14 63 31 101t45.5 58.5t73.5 26.5t115 6q109 0 152.5 -17.5 t43.5 -80.5q0 -37 -12 -94l-113 -531q-14 -66 -30.5 -103.5t-46 -58t-74.5 -26.5t-115 -6q-109 0 -152 16t-43 82zM1130 150q0 -20 11.5 -25.5t42.5 -5.5q20 0 32.5 2t20.5 9t12 19.5t8 32.5l113 531q4 10 4 18v17q0 16 -11 21t-40 5q-41 0 -54.5 -11t-21.5 -50l-112 -531 q-2 -10 -3.5 -18t-1.5 -14z" />
<glyph unicode="&#x26;" horiz-adv-x="813" d="M119 160q0 35 7 77t17 95l76 356q14 70 34.5 114t46.5 70.5t55.5 41t62.5 26.5l2 8q-18 4 -38 11.5t-35 22.5t-25.5 40t-10.5 61q0 18 3 39t8 45l24 121q23 109 49.5 173.5t71.5 99t112.5 46t172.5 11.5h34l-43 -205h-34q-33 0 -53.5 -5t-35 -18.5t-22.5 -38t-16 -63.5 l-29 -141q-4 -23 -7 -38t-3 -28q0 -31 18.5 -40t63.5 -9h90l47 230h219l-47 -230h76l-41 -186h-76l-178 -846h-305q-80 0 -135.5 6t-90 23.5t-50 48.5t-15.5 82zM367 256q0 -35 19.5 -44t66.5 -9h86l135 643h-90q-61 0 -84 -25.5t-37 -91.5l-84 -397q-12 -49 -12 -76z" />
<glyph unicode="'" horiz-adv-x="311" d="M313 1036l93 582h182l-154 -582h-121z" />
<glyph unicode="(" horiz-adv-x="526" d="M104 -188q0 70 23 178l326 1523q20 100 49.5 170t74 114t108 64.5t153.5 20.5h36l-32 -151h-37q-45 0 -74 -8.5t-48 -33t-33.5 -66.5t-28.5 -110l-326 -1523q-18 -86 -19 -131q0 -53 27 -69.5t86 -16.5h37l-33 -152h-37q-139 0 -195.5 44t-56.5 147z" />
<glyph unicode=")" horiz-adv-x="526" d="M-29 -379l31 152h37q43 0 71.5 8t48 30.5t34 65.5t30.5 113l326 1523q10 41 13 74l5 55q0 53 -26.5 71t-85.5 18h-37l33 151h36q135 0 192.5 -47t57.5 -156q0 -72 -20 -166l-326 -1523q-23 -100 -49.5 -170t-69.5 -114t-107.5 -64.5t-158.5 -20.5h-35z" />
<glyph unicode="*" horiz-adv-x="897" d="M352 995l29 99l240 114l-240 117l-29 98l94 27l220 -160l-25 275l70 73l67 -73l-22 -275l219 160l94 -27l-27 -98l-241 -117l241 -114l27 -99l-94 -26l-219 159l22 -274l-67 -74l-70 74l25 274l-220 -159z" />
<glyph unicode="+" horiz-adv-x="1015" d="M244 725l39 186h323l68 322h184l-67 -322h325l-39 -186h-325l-70 -324h-184l69 324h-323z" />
<glyph unicode="," horiz-adv-x="395" d="M43 -217l20 96h27q33 0 52.5 16.5t29.5 59.5l10 45h-92l57 270h215l-67 -309q-18 -86 -69.5 -132t-159.5 -46h-23z" />
<glyph unicode="-" horiz-adv-x="421" d="M168 590l39 184h334l-39 -184h-334z" />
<glyph unicode="." horiz-adv-x="395" d="M90 0l57 270h215l-57 -270h-215z" />
<glyph unicode="/" horiz-adv-x="561" d="M-23 -147l775 1916h174l-779 -1916h-170z" />
<glyph unicode="0" d="M117 139q0 68 24 183l207 976q25 113 52.5 179.5t71.5 102.5t112.5 47t173.5 11q78 0 133 -6t90 -22.5t50.5 -49t15.5 -83.5q0 -68 -25 -179l-207 -976q-25 -113 -52.5 -180.5t-72.5 -103.5t-113.5 -47t-173.5 -11q-78 0 -133 6t-89 22.5t-49 48t-15 82.5zM365 244 q0 -35 18 -45.5t66 -10.5q33 0 54 5.5t34.5 20.5t22.5 41t18 67l206 976q4 25 8.5 43.5t4.5 32.5q0 35 -19.5 44t-64.5 9q-33 0 -53.5 -5t-35 -19t-23.5 -40t-17 -65l-207 -976q-12 -53 -12 -78z" />
<glyph unicode="1" horiz-adv-x="505" d="M178 0l299 1415h-141l43 203h379l-342 -1618h-238z" />
<glyph unicode="2" horiz-adv-x="849" d="M86 0l102 487q20 102 41 166t48.5 106t66.5 70.5t100 61.5l205 110q31 16 50.5 29.5t31.5 30t20.5 36t14.5 48.5l35 160q10 47 10 69q0 33 -18.5 43t-63.5 10q-33 0 -54.5 -6t-35.5 -20.5t-23.5 -39t-17.5 -63.5l-43 -200h-229l43 200q25 113 52.5 179.5t71.5 102.5 t111.5 47t171.5 11q78 0 133.5 -5t89 -22.5t49 -48t15.5 -79.5q0 -68 -25 -178l-37 -170q-14 -63 -29.5 -107.5t-40 -78.5t-61 -60.5t-94.5 -54.5l-221 -117q-29 -16 -47.5 -29.5t-30.5 -31t-20 -40t-15 -55.5l-75 -352h198l84 391h240l-127 -600h-676z" />
<glyph unicode="3" horiz-adv-x="804" d="M109 139q0 68 24 178l68 314h225l-68 -314q-8 -39 -8 -67q0 -35 18.5 -47.5t63.5 -12.5q31 0 51.5 6.5t34.5 21.5t22.5 40t16.5 59l59 277q8 39 13.5 66.5t5.5 50.5q0 33 -17.5 46t-60.5 13h-135l47 213h135q63 0 85 23.5t34 83.5l43 210q10 51 10 72q0 35 -19.5 45 t-62.5 10q-37 0 -58.5 -6t-34.5 -21.5t-20.5 -40t-13.5 -59.5l-39 -190h-225l39 190q23 111 51.5 178.5t72.5 102.5t109.5 46t163.5 11q78 0 133.5 -6t90 -23.5t50 -49t15.5 -82.5q0 -35 -6 -77t-16 -95l-43 -203q-14 -63 -37 -103.5t-48.5 -65t-54 -35.5t-53.5 -17l-2 -9 q45 -10 73.5 -38.5t28.5 -104.5q0 -27 -3 -59.5t-13 -73.5l-59 -283q-23 -109 -50.5 -175t-72.5 -101t-114 -46t-173 -11q-74 0 -127 6t-86 22.5t-48 48t-15 82.5z" />
<glyph unicode="4" horiz-adv-x="860" d="M178 463l252 1165h217l-211 -964h180l152 708h240l-152 -708h96l-41 -201h-96l-98 -463h-240l98 463h-397z" />
<glyph unicode="5" horiz-adv-x="829" d="M129 139q0 66 25 180l61 291h225l-61 -291q-4 -23 -8 -39t-4 -28q0 -41 15 -52.5t67 -11.5q33 0 53 5.5t34.5 18.5t22.5 38.5t19 68.5l61 293q8 35 13 64t5 51q0 41 -21.5 57.5t-74.5 16.5h-305l178 817h656l-109 -518h-238l72 342h-197l-102 -469h180q109 0 158 -38 t49 -136q0 -61 -18 -150l-70 -327q-25 -113 -52.5 -180.5t-73.5 -103.5t-113.5 -47t-172.5 -11q-74 0 -126 6t-84.5 22.5t-48 48t-15.5 82.5z" />
<glyph unicode="6" d="M117 139q0 68 24 183l207 976q25 113 52.5 179.5t71.5 102.5t112.5 47t173.5 11q74 0 127 -6t86 -22.5t48 -49t15 -83.5q0 -68 -24 -179l-35 -161h-227l34 161q4 25 8.5 43.5t4.5 32.5q0 33 -19.5 43t-62.5 10q-31 0 -52.5 -6t-36 -20.5t-23.5 -39t-17 -63.5l-90 -430 q63 90 223 90q104 0 145 -33.5t41 -115.5q0 -37 -7 -85t-19 -108l-62 -294q-25 -113 -52.5 -180.5t-72.5 -103.5t-113.5 -47t-173.5 -11q-78 0 -133 6t-89 22.5t-49 48t-15 82.5zM367 248q0 -39 19.5 -49.5t62.5 -10.5q31 0 51 5.5t34.5 18.5t23.5 40t20 70l61 290 q14 63 14 103q0 39 -17.5 49t-51.5 10q-53 0 -82 -22.5t-49 -71.5l-72 -340q-6 -31 -10 -53.5t-4 -38.5z" />
<glyph unicode="7" horiz-adv-x="675" d="M70 0l614 1421h-330l41 197h563l-36 -180l-609 -1438h-243z" />
<glyph unicode="8" horiz-adv-x="825" d="M115 139q0 35 7 77t17 95l60 285q16 80 37.5 130t48 81t57.5 45t68 20l2 9q-20 4 -41 12t-37.5 23.5t-26.5 41t-10 62.5q0 18 3 38.5t7 43.5l43 207q23 106 50.5 171.5t72.5 100.5t114 46t173 11q78 0 133 -6t90 -23.5t50.5 -48t15.5 -81.5q0 -35 -6.5 -76t-16.5 -94 l-43 -207q-12 -63 -34.5 -103.5t-50.5 -65t-57.5 -35.5t-56.5 -17l-2 -9q49 -10 79 -38.5t30 -102.5q0 -29 -3 -61.5t-14 -73.5l-59 -285q-23 -109 -51.5 -174t-73.5 -100t-112.5 -46t-171.5 -11q-80 0 -135.5 6t-90.5 23.5t-50 48t-15 81.5zM367 244q0 -35 18 -45.5 t66 -10.5q63 0 86.5 24t40.5 101l69 328q4 27 8 47.5t4 36.5q0 35 -19 46t-62 11q-33 0 -53.5 -5t-35 -22.5t-25.5 -52t-24 -92.5l-63 -297q-10 -47 -10 -69zM532 1026q0 -31 18.5 -43t65.5 -12q33 0 54.5 5t35 18.5t21.5 35t14 53.5l43 201q12 57 13 88q0 35 -17.5 45 t-64.5 10q-35 0 -55.5 -6t-35 -21.5t-23.5 -43t-17 -72.5l-43 -201q-8 -31 -9 -57z" />
<glyph unicode="9" d="M129 139q0 66 25 180l26 125h226l-27 -125q-4 -25 -8 -43t-2 -32q0 -35 18.5 -45.5t61.5 -10.5q66 0 89 27t40 104l79 381q-63 -88 -221 -88q-104 0 -145 34t-41 118q0 37 7 84t19 106l72 342q25 113 52.5 180.5t71.5 103.5t112.5 47t173.5 11q78 0 133 -6t90 -22.5 t50.5 -49t15.5 -83.5q0 -68 -25 -181l-207 -977q-25 -113 -52.5 -179t-72.5 -102t-113.5 -47t-173.5 -11q-74 0 -126 6t-84.5 22.5t-48 48t-15.5 82.5zM496 852q0 -35 16 -46t57 -11q53 0 82 20.5t47 73.5l86 407q12 51 13 80q0 33 -18.5 42t-65.5 9q-33 0 -53.5 -4t-35 -18 t-23.5 -40t-17 -69l-64 -295q-10 -53 -17 -88.5t-7 -60.5z" />
<glyph unicode=":" horiz-adv-x="395" d="M90 0l57 270h215l-57 -270h-215zM262 813l57 270h216l-58 -270h-215z" />
<glyph unicode=";" horiz-adv-x="395" d="M43 -217l20 96h27q33 0 52.5 16.5t29.5 59.5l10 45h-92l57 270h215l-67 -309q-18 -86 -70.5 -132t-158.5 -46h-23zM262 813l57 270h216l-58 -270h-215z" />
<glyph unicode="&#x3c;" horiz-adv-x="1015" d="M242 719l43 199l905 337l-43 -190l-682 -250l575 -252l-36 -182z" />
<glyph unicode="=" horiz-adv-x="1015" d="M197 506l39 184h835l-39 -184h-835zM291 952l39 185h835l-39 -185h-835z" />
<glyph unicode="&#x3e;" horiz-adv-x="1015" d="M172 381l43 190l682 250l-575 252l36 182l762 -337l-43 -199z" />
<glyph unicode="?" horiz-adv-x="792" d="M268 0l56 268h215l-56 -268h-215zM291 1094l43 204q25 113 52.5 179.5t72.5 102.5t111.5 47t166.5 11q78 0 132.5 -6t89 -23.5t51 -49t16.5 -82.5q0 -68 -25 -179l-30 -145q-10 -53 -21.5 -90t-26 -67.5t-36 -60.5t-51.5 -67l-191 -225q-16 -18 -25.5 -32.5t-16.5 -29 t-12 -32t-11 -41.5l-25 -121h-201l27 131q10 49 20.5 85t23.5 65.5t31.5 57.5t47.5 60l151 179q33 39 46.5 72.5t27.5 97.5l35 163q4 25 8 43.5t4 32.5q0 33 -19.5 43t-64.5 10q-35 0 -55.5 -5t-34.5 -19t-22.5 -40t-16.5 -65l-43 -204h-229z" />
<glyph unicode="@" horiz-adv-x="866" d="M68 -84q0 35 6 75t16 93l211 987q25 113 52.5 179.5t74.5 102.5t120 47t183 11q84 0 143.5 -6t96.5 -24.5t54 -51.5t17 -86q0 -35 -6 -77t-16 -95l-170 -799h-135l10 50q-25 -29 -60.5 -43.5t-91.5 -14.5q-68 0 -96 19.5t-28 68.5q0 35 12 90l63 299q12 55 25.5 91 t35 57.5t53.5 30t77 8.5q96 0 119 -49l43 204q12 57 12 93q0 53 -38 71.5t-146 18.5q-72 0 -116 -6.5t-70.5 -27t-41 -56t-26.5 -93.5l-215 -1013q-12 -53 -13 -84q0 -53 41 -68.5t150 -15.5q72 0 114.5 6t68.5 24.5t39 51t26 86.5l12 57h145l-10 -43q-23 -109 -51.5 -174.5 t-75.5 -100t-120 -46t-183 -11.5q-86 0 -145.5 6t-96.5 23.5t-53 49.5t-16 85zM594 418q0 -39 57 -39q29 0 50.5 16.5t37.5 38.5l68 320q-10 47 -66 47q-41 0 -57 -18.5t-27 -59.5l-57 -266q-6 -25 -6 -39z" />
<glyph unicode="A" d="M78 0l274 1298q25 113 52.5 179.5t72.5 102.5t111.5 47t167.5 11q76 0 130 -7t88 -25.5t49 -51t15 -84.5q0 -63 -22 -172l-275 -1298h-235l76 360h-199l-76 -360h-229zM424 553h199l157 745q10 47 11 68q0 37 -17.5 49t-64.5 12q-31 0 -52.5 -5t-35 -18t-22.5 -39 t-17 -67z" />
<glyph unicode="B" horiz-adv-x="833" d="M90 0l342 1618h336q80 0 135 -6t90 -23.5t50.5 -48.5t15.5 -82q0 -35 -6 -76t-17 -94l-24 -121q-12 -63 -37 -104t-52.5 -65.5t-55 -37t-48.5 -14.5l-2 -8q47 -12 76 -41t29 -100q0 -45 -17 -123l-71 -342q-23 -109 -50.5 -174.5t-72.5 -100t-113 -46t-172 -11.5h-336z M369 203h100q33 0 53.5 5t33.5 18.5t22.5 39t17.5 66.5l84 395q8 35 8 64q0 31 -17.5 43t-60.5 12h-106zM545 1032h106q57 0 80 22.5t35 82.5l33 151q4 23 7 40.5t3 31.5q0 31 -18.5 42t-65.5 11h-100z" />
<glyph unicode="C" horiz-adv-x="808" d="M117 139q0 68 24 183l207 976q25 111 53.5 178.5t74.5 103.5t113.5 47t168.5 11q74 0 127 -6t86 -22.5t48 -49t15 -83.5q0 -68 -24 -179l-78 -366h-227l77 366q4 25 8.5 43.5t4.5 32.5q0 33 -19.5 43t-62.5 10q-33 0 -53.5 -5t-35 -19t-23.5 -40t-17 -65l-207 -976 q-12 -53 -12 -78q0 -35 18 -45.5t66 -10.5q31 0 51 5.5t34.5 19.5t22.5 40t18 69l80 374h228l-80 -374q-25 -113 -52.5 -180.5t-71.5 -103.5t-110.5 -47t-165.5 -11q-78 0 -133 6t-89 22.5t-49 48t-15 82.5z" />
<glyph unicode="D" horiz-adv-x="837" d="M90 0l342 1618h336q80 0 135 -6t90 -23.5t50.5 -48.5t15.5 -82q0 -35 -6 -76t-17 -94l-202 -956q-23 -109 -50.5 -174.5t-72.5 -100t-113 -46t-172 -11.5h-336zM369 203h100q33 0 53.5 5t33.5 18.5t22.5 39t17.5 66.5l203 956q4 23 7 40.5t3 31.5q0 33 -18.5 43t-65.5 10 h-100z" />
<glyph unicode="E" horiz-adv-x="602" d="M90 0l342 1618h461l-41 -195h-225l-49 -235h219l-41 -187h-219l-168 -798h227l-43 -203h-463z" />
<glyph unicode="F" horiz-adv-x="589" d="M90 0l342 1618h471l-41 -195h-235l-52 -239h228l-41 -195h-227l-209 -989h-236z" />
<glyph unicode="G" horiz-adv-x="817" d="M119 150q0 35 6 76.5t16 95.5l207 976q25 111 53.5 178.5t74.5 103.5t113.5 47t168.5 11q74 0 127 -6t86 -22.5t48 -49t15 -83.5q0 -68 -24 -179l-31 -147h-227l30 147q4 25 8.5 43.5t4.5 32.5q0 33 -19.5 43t-62.5 10q-33 0 -53.5 -5t-35 -19t-23.5 -40t-17 -65 l-207 -976q-4 -25 -7 -43.5t-3 -32.5q0 -35 17 -46.5t65 -11.5q41 0 66.5 2.5t39.5 6.5l158 743h221l-199 -940q-31 -6 -113.5 -13t-218.5 -7q-78 0 -132 7t-87.5 26.5t-49 52t-15.5 84.5z" />
<glyph unicode="H" horiz-adv-x="858" d="M90 0l342 1618h236l-113 -535h205l112 535h238l-342 -1618h-238l187 885h-205l-186 -885h-236z" />
<glyph unicode="I" horiz-adv-x="425" d="M94 0l342 1618h236l-342 -1618h-236z" />
<glyph unicode="J" horiz-adv-x="765" d="M72 139q0 66 24 183l80 374h215l-80 -374q-12 -49 -12 -78q0 -35 18.5 -45.5t61.5 -10.5q61 0 84.5 26t40.5 108l274 1296h238l-275 -1296q-25 -113 -52 -180.5t-71.5 -103.5t-111 -47t-168.5 -11q-72 0 -122 6t-83 22.5t-47 48t-14 82.5z" />
<glyph unicode="K" horiz-adv-x="831" d="M90 0l342 1616h238l-129 -610h10l317 612h258l-383 -690l74 -928h-246l-53 850h-10l-180 -850h-238z" />
<glyph unicode="L" horiz-adv-x="593" d="M90 0l342 1618h236l-299 -1413h241l-43 -205h-477z" />
<glyph unicode="M" horiz-adv-x="1095" d="M90 0l342 1618h326l-99 -1088h9l346 1088h332l-342 -1618h-193l242 1143h-9l-391 -1143h-211l95 1151h-9l-243 -1151h-195z" />
<glyph unicode="N" horiz-adv-x="888" d="M90 0l342 1618h256l19 -1038h8l219 1038h205l-342 -1618h-248l-35 1010h-8l-213 -1010h-203z" />
<glyph unicode="O" d="M117 139q0 68 24 183l207 976q25 113 52.5 179.5t71.5 102.5t112.5 47t173.5 11q78 0 133 -6t90 -22.5t50.5 -49t15.5 -83.5q0 -68 -25 -179l-207 -976q-25 -113 -52.5 -180.5t-72.5 -103.5t-113.5 -47t-173.5 -11q-78 0 -133 6t-89 22.5t-49 48t-15 82.5zM365 244 q0 -35 18 -45.5t66 -10.5q33 0 54 5.5t34.5 20.5t22.5 41t18 67l206 976q4 25 8.5 43.5t4.5 32.5q0 35 -19.5 44t-64.5 9q-33 0 -53.5 -5t-35 -19t-23.5 -40t-17 -65l-207 -976q-12 -53 -12 -78z" />
<glyph unicode="P" horiz-adv-x="813" d="M90 0l342 1618h336q80 0 135 -6t90 -23.5t50.5 -48.5t15.5 -82q0 -35 -6 -76t-17 -94l-73 -346q-23 -109 -51.5 -174.5t-72.5 -100t-113 -45t-171 -10.5h-100l-129 -612h-236zM496 803h100q31 0 51.5 5t34.5 19.5t22.5 40t18.5 66.5l76 354q4 25 7 43.5t3 32.5 q0 29 -18.5 39t-65.5 10h-100z" />
<glyph unicode="Q" d="M119 168q0 33 7 73t17 93l205 964q25 113 52.5 179.5t71.5 102.5t112.5 47t173.5 11q78 0 133 -6t90 -22.5t50.5 -49t15.5 -83.5q0 -68 -25 -179l-205 -964q-29 -139 -67.5 -207t-116.5 -90l80 -193h-205l-72 174q-88 0 -148.5 5.5t-98 21.5t-54 45t-16.5 78zM367 258 q0 -35 19.5 -44t66.5 -9q33 0 53 5t34.5 18.5t22.5 39t17 66.5l204 964q4 25 8.5 43.5t4.5 32.5q0 35 -19.5 44t-64.5 9q-33 0 -53.5 -5t-35 -19t-23.5 -40t-17 -65l-205 -964q-12 -49 -12 -76z" />
<glyph unicode="R" horiz-adv-x="841" d="M90 0l342 1618h336q80 0 135 -6t90 -23.5t50.5 -49.5t15.5 -83q0 -59 -23 -168l-35 -170q-12 -63 -35.5 -103t-50 -64.5t-54 -36t-52.5 -17.5l-2 -8q47 -12 75.5 -40t28.5 -97q0 -43 -12 -107l-135 -645h-238l144 682q4 18 6 33.5t2 27.5q0 31 -17.5 43.5t-60.5 12.5 h-106l-168 -799h-236zM535 985h106q57 0 80.5 22.5t36.5 82.5l41 198q10 51 10 72q0 31 -18.5 42t-65.5 11h-100z" />
<glyph unicode="S" horiz-adv-x="813" d="M121 143q0 68 24 179l68 321h229l-67 -321q-12 -53 -13 -80q0 -33 18.5 -43.5t63.5 -10.5q33 0 53.5 5.5t35 19.5t22.5 40t18 69l52 243q4 25 7 43.5t3 34.5q0 35 -20.5 58.5t-79.5 58.5q-70 39 -117 70.5t-75 61.5t-39 59.5t-11 64.5q0 27 5 56.5t13 66.5l33 155 q25 113 51.5 180.5t71.5 104.5t113.5 48t173.5 11q76 0 129 -6t87 -23.5t49 -49t15 -82.5q0 -70 -24 -183l-43 -200h-230l43 200q12 51 13 82q0 33 -18.5 42t-65.5 9q-35 0 -55.5 -5t-34 -18t-22.5 -40t-17 -70l-35 -159q-6 -31 -6 -52q0 -33 22.5 -53t81.5 -55 q70 -41 116 -72t73.5 -59.5t40 -58t12.5 -66.5q0 -55 -19 -137l-55 -260q-25 -113 -52.5 -180.5t-72.5 -103.5t-113.5 -47t-173.5 -11q-74 0 -127 6t-86.5 23.5t-49 49t-15.5 84.5z" />
<glyph unicode="T" horiz-adv-x="641" d="M203 0l301 1421h-178l41 197h589l-41 -197h-176l-301 -1421h-235z" />
<glyph unicode="U" horiz-adv-x="829" d="M125 143q0 68 25 179l274 1296h235l-274 -1296q-12 -49 -12 -76q0 -35 19.5 -45.5t66.5 -10.5q31 0 51 5.5t33.5 18.5t22.5 39t20 69l274 1296h230l-275 -1296q-25 -113 -52.5 -180.5t-72.5 -103.5t-112.5 -47t-167.5 -11q-78 0 -131.5 6t-88 23.5t-50 49t-15.5 84.5z " />
<glyph unicode="V" horiz-adv-x="765" d="M199 0l159 1618h238l-168 -1325h8l406 1325h248l-547 -1618h-344z" />
<glyph unicode="W" horiz-adv-x="1185" d="M168 0l192 1618h232l-203 -1272h8l379 1272h301l-178 -1272h8l359 1272h241l-530 -1618h-299l184 1284h-8l-383 -1284h-303z" />
<glyph unicode="X" horiz-adv-x="774" d="M12 0l363 848l-8 770h235v-621l244 621h225l-328 -770l15 -848h-238l17 723l-283 -723h-242z" />
<glyph unicode="Y" horiz-adv-x="724" d="M240 0l120 571l-12 1047h230l-35 -731h8l274 731h234l-463 -1047l-121 -571h-235z" />
<glyph unicode="Z" horiz-adv-x="643" d="M37 0l43 205l577 1216h-286l41 197h530l-33 -160l-577 -1255h315l-43 -203h-567z" />
<glyph unicode="[" horiz-adv-x="526" d="M68 -379l481 2261h346l-33 -151h-178l-416 -1958h178l-32 -152h-346z" />
<glyph unicode="\" horiz-adv-x="561" d="M344 -147l39 1916h172l-37 -1916h-174z" />
<glyph unicode="]" horiz-adv-x="526" d="M-49 -379l33 152h176l415 1958h-178l33 151h346l-481 -2261h-344z" />
<glyph unicode="^" horiz-adv-x="931" d="M201 698l508 920h196l119 -920h-180l-80 701l-375 -701h-188z" />
<glyph unicode="_" horiz-adv-x="811" d="M-59 -279l39 185h815l-39 -185h-815z" />
<glyph unicode="`" horiz-adv-x="413" d="M379 1649h219l61 -340h-151z" />
<glyph unicode="a" horiz-adv-x="727" d="M102 100q0 41 17 117l63 297q23 111 76 162t156 51h39q70 0 97.5 -5t39.5 -13l53 254q8 33 8 59q0 29 -18.5 38t-59.5 9q-53 0 -73.5 -22.5t-32.5 -83.5l-25 -121h-190l31 145q18 86 40.5 137.5t58.5 79t91 35.5t139 8q139 0 198.5 -23.5t59.5 -107.5q0 -25 -5 -56.5 t-13 -72.5l-209 -987q-41 -10 -117.5 -15t-199.5 -5q-61 0 -103.5 4t-69 17t-39 36.5t-12.5 62.5zM309 197q0 -27 14.5 -36t55.5 -9q45 0 65.5 1t28.5 3l84 401q-20 12 -86 12q-31 0 -49.5 -5t-29.5 -17t-18 -33.5t-14 -52.5l-41 -193q-4 -23 -7 -40t-3 -31z" />
<glyph unicode="b" horiz-adv-x="751" d="M90 0l342 1618h209l-98 -467q31 41 78 63.5t118 22.5q88 0 125 -28.5t37 -98.5q0 -45 -16 -123l-160 -747q-16 -74 -34.5 -122t-46.5 -77t-70 -40t-103 -11q-74 0 -114 22.5t-54 75.5l-18 -88h-195zM342 240q14 -63 80 -64q53 0 73.5 20.5t34.5 82.5l144 667q6 31 6 49 q0 31 -16.5 42.5t-57.5 11.5q-35 0 -60.5 -17.5t-43.5 -46.5z" />
<glyph unicode="c" horiz-adv-x="714" d="M106 111q0 27 3.5 57.5t13.5 71.5l160 747q18 86 40.5 137.5t61.5 79t97.5 35.5t148.5 8q131 0 185 -25.5t54 -105.5q0 -27 -5 -60.5t-13 -68.5l-45 -215h-191l41 193q6 25 7 43q0 27 -16.5 35t-57.5 8q-59 0 -78.5 -16.5t-30.5 -69.5l-151 -705q-6 -29 -6 -43 q0 -29 17 -37t60 -8q53 0 74 19.5t31 68.5l67 318h191l-72 -338q-18 -86 -41.5 -138.5t-60.5 -79t-92.5 -34.5t-137.5 -8q-70 0 -117.5 5t-78.5 19t-44.5 40t-13.5 67z" />
<glyph unicode="d" horiz-adv-x="751" d="M104 111q0 49 19 129l160 747q14 72 33.5 120t47 76.5t68.5 41t103 12.5q70 0 105.5 -22.5t51.5 -63.5l99 467h210l-342 -1618h-194l18 88q-41 -53 -90 -75.5t-123 -22.5q-90 0 -128 25.5t-38 95.5zM328 227q0 -31 15 -41t56 -10q35 0 60.5 17.5t44.5 46.5l160 745 q-14 63 -80 64q-53 0 -74 -20.5t-33 -82.5l-143 -667q-6 -31 -6 -52z" />
<glyph unicode="e" horiz-adv-x="718" d="M106 111q0 27 3.5 57.5t13.5 71.5l160 747q18 86 40.5 137.5t60.5 79t97.5 35.5t149.5 8q129 0 184 -22.5t55 -104.5q0 -51 -18 -133l-94 -446h-365l-61 -289q-4 -16 -6 -28.5t-2 -22.5q0 -27 17 -35t58 -8q55 0 76 17.5t33 76.5l35 166h188l-39 -178 q-18 -86 -40.5 -137.5t-58.5 -79t-91.5 -35.5t-141.5 -8q-139 0 -196.5 23.5t-57.5 107.5zM428 709h176l55 262q6 31 7 49q0 27 -16.5 35t-57.5 8q-57 0 -76.5 -16.5t-32.5 -75.5z" />
<glyph unicode="f" horiz-adv-x="495" d="M102 0l224 1057h-76l37 170h75l27 131q29 135 111 197.5t241 62.5h66l-33 -156h-51q-102 0 -127 -114l-25 -121h156l-37 -170h-155l-224 -1057h-209z" />
<glyph unicode="g" horiz-adv-x="751" d="M39 -313l37 176h219q72 0 101.5 23.5t45.5 93.5l35 157q-33 -41 -79 -62.5t-115 -21.5q-92 0 -128 28t-36 93q0 27 5 58.5t13 70.5l146 684q14 72 33.5 120t47 76.5t69.5 41t104 12.5q74 0 112.5 -23.5t55.5 -76.5l20 90h195l-267 -1247q-33 -150 -111.5 -221.5 t-234.5 -71.5h-268zM340 289q0 -29 16.5 -39t55.5 -10q35 0 61.5 17t44.5 46l146 682q-14 63 -80 64q-53 0 -74 -20.5t-33 -82.5l-129 -604q-8 -31 -8 -53z" />
<glyph unicode="h" horiz-adv-x="778" d="M90 0l342 1618h209l-98 -469q63 88 198 88q94 0 135.5 -28.5t41.5 -104.5q0 -53 -15 -117l-209 -987h-209l205 965q2 10 3 17t1 15q0 51 -78 52q-41 0 -65.5 -17.5t-42.5 -46.5l-209 -985h-209z" />
<glyph unicode="i" horiz-adv-x="397" d="M94 0l260 1227h207l-260 -1227h-207zM391 1405l45 213h207l-45 -213h-207z" />
<glyph unicode="j" horiz-adv-x="397" d="M-164 -313l37 176h98q51 0 79 25.5t42 91.5l266 1247h209l-266 -1247q-33 -147 -114 -220t-236 -73h-115zM395 1405l45 213h209l-45 -213h-209z" />
<glyph unicode="k" horiz-adv-x="747" d="M90 0l342 1618h207l-178 -844h8l262 453h234l-328 -525l94 -702h-227l-66 631h-8l-133 -631h-207z" />
<glyph unicode="l" horiz-adv-x="391" d="M90 0l342 1618h209l-342 -1618h-209z" />
<glyph unicode="m" horiz-adv-x="1173" d="M90 0l260 1227h195l-19 -82q33 45 84.5 68.5t128.5 23.5q82 0 123 -22.5t51 -77.5q37 49 89.5 74.5t130.5 25.5q94 0 136 -28.5t42 -104.5q0 -53 -15 -117l-209 -987h-208l204 965q2 10 3 18t1 14q0 29 -17 40.5t-60 11.5q-39 0 -63.5 -16.5t-43.5 -45.5l-209 -987h-209 l205 965q2 10 3 17t1 15q0 51 -78 52q-41 0 -65.5 -17.5t-42.5 -46.5l-209 -985h-209z" />
<glyph unicode="n" horiz-adv-x="778" d="M90 0l260 1227h195l-19 -82q33 45 84.5 68.5t128.5 23.5q94 0 136.5 -28.5t42.5 -104.5q0 -53 -15 -117l-209 -987h-209l205 965q2 10 3 17t1 15q0 51 -78 52q-41 0 -65.5 -17.5t-42.5 -46.5l-209 -985h-209z" />
<glyph unicode="o" horiz-adv-x="735" d="M106 111q0 27 3.5 57.5t13.5 71.5l160 747q18 86 40.5 137.5t60.5 79t97.5 35.5t149.5 8q137 0 195.5 -23.5t58.5 -107.5q0 -27 -4 -57.5t-13 -71.5l-159 -747q-18 -86 -41 -137.5t-62 -79t-97 -35.5t-149 -8q-139 0 -196.5 23.5t-57.5 107.5zM324 217q0 -29 17 -37 t60 -8q59 0 79 19.5t30 68.5l152 705q6 25 6 43q0 27 -17.5 35t-60.5 8q-57 0 -77.5 -17.5t-31.5 -68.5l-151 -705q-6 -29 -6 -43z" />
<glyph unicode="p" horiz-adv-x="751" d="M23 -313l327 1540h195l-21 -90q39 53 89.5 76.5t123.5 23.5q90 0 127 -26.5t37 -94.5q0 -47 -16 -129l-160 -747q-16 -74 -34.5 -122t-46.5 -77t-68.5 -40t-102.5 -11q-72 0 -107.5 21.5t-52.5 62.5l-82 -387h-208zM342 240q14 -63 80 -64q53 0 73.5 20.5t34.5 82.5 l144 667q6 31 6 49q0 31 -16.5 42.5t-57.5 11.5q-35 0 -60.5 -17.5t-43.5 -46.5z" />
<glyph unicode="q" horiz-adv-x="751" d="M106 113q0 27 4.5 57.5t12.5 69.5l160 747q14 72 33.5 120t47 76.5t69.5 41t104 12.5q74 0 112.5 -23.5t55.5 -76.5l20 90h195l-328 -1540h-211l82 387q-31 -41 -78 -62.5t-117 -21.5q-90 0 -126 27.5t-36 95.5zM328 227q0 -31 15 -41t56 -10q35 0 60.5 17.5t44.5 46.5 l160 745q-14 63 -80 64q-53 0 -74 -20.5t-33 -82.5l-143 -667q-6 -31 -6 -52z" />
<glyph unicode="r" horiz-adv-x="692" d="M90 0l260 1227h195l-19 -82q31 41 83.5 66.5t127.5 25.5q80 0 117 -27.5t37 -99.5q0 -45 -17 -123l-65 -305h-188l59 281q4 10 4 20v18q0 27 -15.5 37.5t-56.5 10.5q-68 0 -106 -68l-207 -981h-209z" />
<glyph unicode="s" horiz-adv-x="727" d="M102 111q0 51 19 131l39 188h205l-35 -166q-6 -29 -6 -45q0 -29 17 -37t60 -8q57 0 77 18.5t30 71.5l31 150q6 25 6 43q0 29 -22.5 47t-82.5 45q-57 25 -96 45t-63.5 41.5t-36 47.5t-11.5 60q0 37 13 93l33 149q18 86 40.5 138.5t60.5 80t97.5 35.5t151.5 8 q137 0 195.5 -23.5t58.5 -107.5q0 -51 -19 -131l-24 -113h-203l20 93q6 27 7 45q0 25 -17.5 34t-58.5 9q-61 0 -78.5 -17.5t-30.5 -70.5l-22 -99q-6 -25 -6 -41q0 -27 17 -44t67 -40q68 -31 111.5 -55t69 -47t37 -46.5t11.5 -51.5q0 -27 -10 -72l-47 -227 q-18 -86 -41 -138.5t-61 -80t-97 -35.5t-150 -8q-139 0 -197.5 23.5t-58.5 107.5z" />
<glyph unicode="t" horiz-adv-x="493" d="M137 170q0 20 2 43t8 47l170 797h-75l37 170h75l80 372h209l-80 -372h144l-37 -170h-144l-164 -770q-6 -31 -6 -49q0 -35 19.5 -47.5t66.5 -12.5h39l-37 -178h-53q-139 0 -196.5 41t-57.5 129z" />
<glyph unicode="u" horiz-adv-x="772" d="M115 121q0 25 4 54.5t12 64.5l211 987h209l-207 -967q-2 -10 -3 -18.5t-1 -16.5q0 -27 16.5 -38t57.5 -11t64.5 17.5t41.5 46.5l211 987h211l-260 -1227h-197l17 80q-33 -45 -83 -67.5t-126 -22.5q-94 0 -136 27.5t-42 103.5z" />
<glyph unicode="v" horiz-adv-x="667" d="M160 0l112 1227h215l-102 -932h8l299 932h221l-426 -1227h-327z" />
<glyph unicode="w" horiz-adv-x="1097" d="M152 0l118 1227h219l-133 -918h9l301 918h272l-102 -918h8l272 918h227l-430 -1227h-282l117 932h-9l-303 -932h-284z" />
<glyph unicode="x" horiz-adv-x="694" d="M12 0l307 647l-36 580h213l12 -469l205 469h200l-270 -584l35 -643h-217v545l-232 -545h-217z" />
<glyph unicode="y" horiz-adv-x="778" d="M57 -313l37 176h223q72 0 103 23.5t47 93.5l35 157q-33 -41 -81 -62.5t-118 -21.5q-92 0 -133 28t-41 103q0 43 16 119l197 924h209l-189 -885q-6 -29 -6 -47q0 -33 18.5 -44t59.5 -11q35 0 60.5 17t46.5 46l196 924h209l-266 -1247q-33 -150 -113 -221.5t-235 -71.5 h-275z" />
<glyph unicode="z" horiz-adv-x="616" d="M31 0l37 178l518 879h-295l37 170h508l-35 -158l-510 -893h327l-36 -176h-551z" />
<glyph unicode="{" horiz-adv-x="546" d="M152 -238q0 70 20 158l135 631q2 10 3 18.5t1 18.5q0 76 -86 76h-30l30 139h31q104 0 129 112l133 629q20 94 47 158.5t69 104.5t104.5 57.5t154.5 17.5h22l-32 -149h-23q-41 0 -69.5 -9.5t-48 -31t-33 -57.5t-25.5 -91l-131 -618q-16 -76 -48 -123t-73 -70 q47 -37 47 -121q0 -16 -2 -33.5t-6 -37.5l-133 -621q-6 -31 -10 -55.5t-4 -42.5q0 -51 26.5 -70.5t85.5 -19.5h23l-33 -148h-23q-139 0 -195 40t-56 138z" />
<glyph unicode="|" horiz-adv-x="466" d="M66 -379l481 2261h168l-482 -2261h-167z" />
<glyph unicode="}" horiz-adv-x="546" d="M-57 -416l32 148h23q41 0 68.5 9t47 30.5t33 57.5t25.5 91l133 621q16 74 48 122t73 70q-23 16 -36 45t-13 72q0 29 10 76l131 618q12 61 12 98q0 51 -25.5 71t-84.5 20h-23l33 149h23q137 0 194.5 -42t57.5 -140q0 -33 -5.5 -71t-15.5 -85l-133 -629q-6 -23 -6 -38 q0 -74 86 -74h31l-31 -139h-31q-55 0 -85 -29t-42 -84l-135 -631q-20 -94 -47 -157.5t-69 -103.5t-104.5 -57.5t-152.5 -17.5h-22z" />
<glyph unicode="~" horiz-adv-x="1048" d="M227 651l37 174q29 55 94.5 91t147.5 36q51 0 100 -18.5t95.5 -42t92.5 -42t95 -18.5q88 0 144.5 39t96.5 105l-38 -176q-25 -53 -93.5 -89t-148.5 -36q-55 0 -105.5 18.5t-96.5 41t-90 41t-89 18.5q-90 0 -143.5 -40t-98.5 -102z" />
<glyph unicode="&#xa1;" horiz-adv-x="370" d="M63 0zM64 0l299 1231h162l-220 -1231h-241zM361 1348l57 270h215l-57 -270h-215z" />
<glyph unicode="&#xa2;" horiz-adv-x="729" d="M145 283q0 51 19 131l168 790q14 72 32.5 120t46 77t68.5 42t101 17l43 199h182l-43 -199q84 -6 121 -31.5t37 -93.5q0 -27 -5.5 -58.5t-13.5 -72.5l-51 -248h-191l48 226q6 27 6 47q0 25 -16.5 33t-57.5 8q-59 0 -78.5 -16.5t-30.5 -71.5l-157 -748q-6 -29 -6 -43 q0 -27 17 -35t60 -8q53 0 74 16.5t31 69.5l69 328h191l-76 -348q-16 -76 -34.5 -124t-46 -77t-67.5 -42t-100 -15l-43 -197h-182l43 197q-86 6 -122 33.5t-36 93.5z" />
<glyph unicode="&#xa3;" horiz-adv-x="819" d="M43 0l41 197h70l82 389h-70l37 170h69l115 542q25 113 51.5 179.5t70.5 102.5t110.5 47t168.5 11q72 0 123.5 -6t83 -22.5t47 -47t15.5 -81.5q0 -70 -25 -183l-84 -401h-215l84 401q4 25 8 44.5t4 33.5q0 33 -18 43.5t-61 10.5q-31 0 -52.5 -5.5t-35 -19.5t-22.5 -40 t-17 -67l-115 -542h364l-36 -170h-365l-82 -389h414l-41 -197h-719z" />
<glyph unicode="&#xa4;" horiz-adv-x="1060" d="M143 434l211 174q-2 6 -2 21q0 39 17 108l30 142q8 39 17.5 72.5t21.5 58.5l-135 172l127 104l152 -194q35 14 77.5 19t108.5 5q63 0 105 -5t67 -19l236 194l81 -104l-204 -168q0 -23 -2 -58.5t-13 -76.5l-30 -142q-10 -43 -19.5 -75.5t-23.5 -57.5l135 -170l-127 -104 l-152 192q-33 -14 -77 -18t-107 -4q-66 0 -108 4t-68 20l-236 -194zM502 688q0 -37 32.5 -50t129.5 -13q59 0 96 5t58.5 17t31.5 33.5t18 56.5l31 144q6 27 6 47q0 37 -32.5 51t-129.5 14q-61 0 -98 -5t-58.5 -18.5t-31.5 -35t-16 -53.5l-31 -144q-6 -31 -6 -49z" />
<glyph unicode="&#xa5;" horiz-adv-x="811" d="M123 262l31 146h215l34 170h-215l31 143h203l-31 897h225l-20 -670h8l262 670h236l-408 -897h180l-30 -143h-193l-35 -170h193l-31 -146h-192l-56 -262h-247l55 262h-215z" />
<glyph unicode="&#xa6;" horiz-adv-x="466" d="M66 -379l194 909h168l-195 -909h-167zM365 1026l182 856h168l-183 -856h-167z" />
<glyph unicode="&#xa7;" horiz-adv-x="727" d="M78 -4q0 49 18 133l33 154h203l-29 -131q-6 -31 -6 -50q0 -29 17.5 -37t58.5 -8q59 0 78.5 19.5t31.5 75.5l23 106q6 31 6 51q0 33 -23.5 52.5t-82.5 46.5q-55 25 -93.5 44t-63 40.5t-35.5 46t-11 59.5q0 16 3 35.5t7 42.5l33 153q10 51 21.5 87t26.5 63t35.5 43t51.5 27 q-33 20 -46 42.5t-13 59.5q0 35 12 94l28 135q18 86 41 138.5t61 80t97.5 35.5t149.5 8q139 0 197.5 -23.5t58.5 -107.5q0 -51 -19 -131l-22 -102h-203l18 82q6 27 7 43q0 27 -17.5 36t-60.5 9q-59 0 -79 -18.5t-30 -69.5l-16 -78q-6 -29 -6 -45q0 -27 17 -47.5t69 -44.5 q63 -31 105 -56.5t67.5 -51t36 -53.5t10.5 -60q0 -39 -13 -95l-32 -153q-18 -84 -44 -127t-67 -68q23 -18 31 -41.5t8 -56.5q0 -27 -5 -58.5t-13 -68.5l-27 -127q-18 -88 -41 -140t-60.5 -80t-97 -36t-151.5 -8q-70 0 -118 5t-79 18.5t-44 39t-13 68.5zM416 664 q0 -29 23.5 -44.5t88.5 -31.5q35 6 48.5 38.5t25.5 86.5l21 90q6 31 6 55q0 33 -15.5 49.5t-54.5 24.5q-33 -4 -53.5 -12.5t-32.5 -27t-21.5 -48t-17.5 -76.5l-12 -61q-6 -25 -6 -43z" />
<glyph unicode="&#xa8;" horiz-adv-x="765" d="M391 1405l45 213h207l-45 -213h-207zM760 1405l45 213h209l-45 -213h-209z" />
<glyph unicode="&#xaa;" horiz-adv-x="552" d="M270 872q0 29 9 62l34 162q14 66 50 94.5t104 28.5h22q43 0 61.5 -2.5t27.5 -6.5l26 127q4 20 4 27q0 16 -11 20.5t-36 4.5q-35 0 -47 -11.5t-18 -40.5l-15 -71h-131l19 86q10 49 24.5 78.5t37 45t59 20.5t94.5 5q96 0 135 -13t39 -67q0 -14 -2 -31.5t-6 -37.5l-117 -543 q-27 -4 -76 -8t-135 -4q-84 0 -118 14t-34 61zM412 934q0 -27 47 -27t55 2l43 203q-18 6 -53 6t-47.5 -11t-18.5 -40l-22 -104q-2 -10 -3 -16.5t-1 -12.5z" />
<glyph unicode="&#xab;" horiz-adv-x="958" d="M219 453zM219 668l35 170l367 215l-35 -170l-234 -133l174 -144l-34 -153zM698 668l35 170l367 215l-35 -170l-234 -133l174 -144l-34 -153z" />
<glyph unicode="&#xac;" horiz-adv-x="1015" d="M246 739l39 185h835l-186 -879h-184l147 694h-651z" />
<glyph unicode="&#xad;" horiz-adv-x="421" d="M168 590l39 184h334l-39 -184h-334z" />
<glyph unicode="&#xaf;" horiz-adv-x="788" d="M401 1450l27 125h598l-27 -125h-598z" />
<glyph unicode="&#xb0;" horiz-adv-x="690" d="M328 1319q0 66 23.5 124t63.5 101t95 68.5t119 25.5q61 0 116.5 -25.5t95.5 -68.5t63.5 -101t23.5 -124t-23.5 -123t-63.5 -100t-95.5 -67.5t-116.5 -24.5q-63 0 -118.5 24.5t-95.5 67.5t-63.5 100t-23.5 123zM438 1319q0 -41 14.5 -77t41 -63.5t60.5 -43t75 -15.5 q39 0 72.5 15.5t59 43t40 63.5t14.5 77q0 84 -54 142.5t-132 58.5q-41 0 -75 -15.5t-60.5 -43t-41 -64.5t-14.5 -78z" />
<glyph unicode="&#xb1;" horiz-adv-x="1015" d="M92 2l39 186h833l-39 -186h-833zM92 2zM244 725l39 186h323l68 322h184l-67 -322h325l-39 -186h-325l-70 -324h-184l69 324h-323z" />
<glyph unicode="&#xb2;" horiz-adv-x="634" d="M244 725l66 311q8 43 17 71t25.5 47.5t43 35.5t67.5 35l133 59q35 16 48.5 30.5t19.5 39.5l18 86q2 10 3 17t1 11q0 18 -12 24.5t-41 6.5q-39 0 -54 -12t-24 -49l-24 -117h-158l25 117q12 63 29.5 101t46 58.5t73.5 26.5t115 6q109 0 153 -17.5t44 -80.5q0 -37 -13 -92 l-20 -90q-8 -37 -18.5 -62.5t-27 -44t-41 -34t-61.5 -31.5l-139 -64q-35 -16 -48 -30.5t-20 -45.5l-38 -184h122l45 213h166l-71 -342h-451zM244 725z" />
<glyph unicode="&#xb3;" horiz-adv-x="604" d="M256 713zM256 811q0 35 13 94l39 178h155l-39 -178q-2 -10 -3 -16t-1 -12q0 -20 12.5 -26.5t40.5 -6.5q41 0 52.5 13t19.5 48l33 150q4 16 6 30.5t2 24.5q0 18 -10 25.5t-39 7.5h-90l26 131h91q41 0 53 11t18 40l23 113q2 10 3 18t1 14q0 18 -11.5 23.5t-39.5 5.5 q-45 0 -55.5 -13t-18.5 -48l-23 -111h-155l22 111q12 63 29.5 101t46.5 58.5t72 26.5t108 6q111 0 155 -18.5t44 -81.5q0 -35 -12 -90l-25 -109q-14 -61 -38.5 -87.5t-57.5 -37.5q23 -8 35 -25.5t12 -52.5q0 -33 -8 -71l-33 -154q-12 -61 -29.5 -99t-47 -57.5t-75 -26.5 t-114.5 -7q-102 0 -144.5 16t-42.5 82z" />
<glyph unicode="&#xb4;" horiz-adv-x="413" d="M305 1309l197 340h231l-262 -340h-166z" />
<glyph unicode="&#xb6;" horiz-adv-x="1202" d="M252 813q0 35 7 77t17 95l64 303q23 109 49.5 173.5t71.5 99t112.5 46t171.5 11.5h705l-410 -1931h-235l369 1734h-162l-369 -1734h-235l206 968h-71q-80 0 -135.5 5.5t-90 22.5t-50 48t-15.5 82zM498 899q0 -33 18.5 -43t65.5 -10h71l121 567h-72q-33 0 -53 -5 t-33.5 -19.5t-22.5 -39t-18 -63.5l-65 -311q-12 -49 -12 -76z" />
<glyph unicode="&#xb7;" horiz-adv-x="395" d="M233 676l57 270h215l-57 -270h-215zM233 676z" />
<glyph unicode="&#xb8;" horiz-adv-x="366" d="M-55 -379l174 338h209l-240 -338h-143z" />
<glyph unicode="&#xb9;" horiz-adv-x="407" d="M305 725zM306 725l161 768h-94l27 127h256l-189 -895h-161z" />
<glyph unicode="&#xba;" horiz-adv-x="557" d="M272 877q0 23 11 69l86 406q10 49 24.5 78.5t39 45t63.5 20.5t98 5q96 0 135 -13t39 -67q0 -23 -10 -69l-86 -406q-10 -49 -24.5 -77.5t-39 -45t-63.5 -21.5t-101 -5q-94 0 -133 14t-39 66zM422 942q0 -14 10 -19t39 -5q35 0 48 9t18 31l84 396q0 16 -11.5 20t-40.5 4 q-35 0 -47 -8t-16 -31z" />
<glyph unicode="&#xbb;" horiz-adv-x="958" d="M176 453l35 170l233 133l-174 143l35 154l273 -215l-35 -170zM176 453zM655 453l35 170l233 133l-174 143l35 154l273 -215l-35 -170z" />
<glyph unicode="&#xbc;" horiz-adv-x="1286" d="M109 0l1018 1618h160l-1018 -1618h-160zM109 0zM306 725l161 768h-94l27 127h256l-189 -895h-161zM786 250l140 649h147l-111 -522h109l82 385h166l-82 -385h59l-28 -127h-60l-51 -250h-166l51 250h-256z" />
<glyph unicode="&#xbd;" horiz-adv-x="1280" d="M109 0l1018 1618h160l-1018 -1618h-160zM109 0zM306 725l161 768h-94l27 127h256l-189 -895h-161zM735 0l66 311q8 43 17 71t25.5 47.5t43 35.5t67.5 35l133 59q35 16 48.5 30.5t19.5 39.5l18 86q2 10 3 17t1 11q0 18 -12 24.5t-41 6.5q-39 0 -54 -12t-24 -49l-24 -117 h-158l25 117q12 63 29.5 101t46 58.5t73.5 26.5t115 6q109 0 153 -17.5t44 -80.5q0 -37 -13 -92l-20 -90q-8 -37 -18.5 -62.5t-27 -44t-41 -34t-61.5 -31.5l-139 -64q-35 -16 -48 -30.5t-20 -45.5l-38 -184h122l45 213h166l-71 -342h-451z" />
<glyph unicode="&#xbe;" horiz-adv-x="1482" d="M256 0zM256 811q0 35 13 94l39 178h155l-39 -178q-2 -10 -3 -16t-1 -12q0 -20 12.5 -26.5t40.5 -6.5q41 0 52.5 13t19.5 48l33 150q4 16 6 30.5t2 24.5q0 18 -10 25.5t-39 7.5h-90l26 131h91q41 0 53 11t18 40l23 113q2 10 3 18t1 14q0 18 -11.5 23.5t-39.5 5.5 q-45 0 -55.5 -13t-18.5 -48l-23 -111h-155l22 111q12 63 29.5 101t46.5 58.5t72 26.5t108 6q111 0 155 -18.5t44 -81.5q0 -35 -12 -90l-25 -109q-14 -61 -38.5 -87.5t-57.5 -37.5q23 -8 35 -25.5t12 -52.5q0 -33 -8 -71l-33 -154q-12 -61 -29.5 -99t-47 -57.5t-75 -26.5 t-114.5 -7q-102 0 -144.5 16t-42.5 82zM305 0l1018 1618h160l-1018 -1618h-160zM983 250l140 649h147l-111 -522h109l82 385h166l-82 -385h59l-28 -127h-60l-51 -250h-166l51 250h-256z" />
<glyph unicode="&#xbf;" horiz-adv-x="792" d="M102 0zM102 141q0 68 25 179l30 145q10 53 21.5 90t26 67.5t36 60.5t51.5 67l191 225q16 18 25.5 32.5t16.5 29t12 32t11 41.5l25 121h201l-27 -131q-10 -49 -20.5 -85t-23.5 -65.5t-31.5 -57.5t-47.5 -60l-151 -179q-33 -39 -46.5 -72.5t-27.5 -97.5l-35 -163 q-4 -25 -8 -43.5t-4 -32.5q0 -33 19.5 -43t64.5 -10q35 0 55.5 5t34.5 19t22.5 40t16.5 65l43 204h229l-43 -204q-25 -113 -52.5 -179.5t-72.5 -102.5t-111.5 -47t-166.5 -11q-78 0 -132.5 6t-89 23.5t-51 49t-16.5 82.5zM589 1350l56 268h215l-56 -268h-215z" />
<glyph unicode="&#xc0;" d="M78 0l274 1298q25 113 52.5 179.5t72.5 102.5t111.5 47t167.5 11q76 0 130 -7t88 -25.5t49 -51t15 -84.5q0 -63 -22 -172l-275 -1298h-235l76 360h-199l-76 -360h-229zM78 0zM424 553h199l157 745q10 47 11 68q0 37 -17.5 49t-64.5 12q-31 0 -52.5 -5t-35 -18t-22.5 -39 t-17 -67zM604 2040h219l61 -340h-151z" />
<glyph unicode="&#xc1;" d="M78 0l274 1298q25 113 52.5 179.5t72.5 102.5t111.5 47t167.5 11q76 0 130 -7t88 -25.5t49 -51t15 -84.5q0 -63 -22 -172l-275 -1298h-235l76 360h-199l-76 -360h-229zM78 0zM424 553h199l157 745q10 47 11 68q0 37 -17.5 49t-64.5 12q-31 0 -52.5 -5t-35 -18t-22.5 -39 t-17 -67zM653 1700l197 340h231l-262 -340h-166z" />
<glyph unicode="&#xc2;" d="M78 0l274 1298q25 113 52.5 179.5t72.5 102.5t111.5 47t167.5 11q76 0 130 -7t88 -25.5t49 -51t15 -84.5q0 -63 -22 -172l-275 -1298h-235l76 360h-199l-76 -360h-229zM78 0zM424 553h199l157 745q10 47 11 68q0 37 -17.5 49t-64.5 12q-31 0 -52.5 -5t-35 -18t-22.5 -39 t-17 -67zM471 1700l283 340h178l133 -340h-143l-103 223l-196 -223h-152z" />
<glyph unicode="&#xc3;" d="M78 0l274 1298q25 113 52.5 179.5t72.5 102.5t111.5 47t167.5 11q76 0 130 -7t88 -25.5t49 -51t15 -84.5q0 -63 -22 -172l-275 -1298h-235l76 360h-199l-76 -360h-229zM78 0zM424 553h199l157 745q10 47 11 68q0 37 -17.5 49t-64.5 12q-31 0 -52.5 -5t-35 -18t-22.5 -39 t-17 -67zM491 1798l31 149q29 23 68.5 38.5t82.5 15.5t80 -10.5t72 -21.5t72 -21.5t80 -10.5q94 0 157 74l-32 -147q-29 -27 -69 -43.5t-87 -16.5q-43 0 -80 10.5t-71.5 23.5t-71.5 23.5t-80 10.5q-51 0 -87 -20.5t-65 -53.5z" />
<glyph unicode="&#xc4;" d="M78 0l274 1298q25 113 52.5 179.5t72.5 102.5t111.5 47t167.5 11q76 0 130 -7t88 -25.5t49 -51t15 -84.5q0 -63 -22 -172l-275 -1298h-235l76 360h-199l-76 -360h-229zM78 0zM424 553h199l157 745q10 47 11 68q0 37 -17.5 49t-64.5 12q-31 0 -52.5 -5t-35 -18t-22.5 -39 t-17 -67zM500 1796l45 213h207l-45 -213h-207zM869 1796l45 213h209l-45 -213h-209z" />
<glyph unicode="&#xc5;" d="M78 0l274 1298q25 113 52.5 179.5t72.5 102.5t111.5 47t167.5 11q76 0 130 -7t88 -25.5t49 -51t15 -84.5q0 -63 -22 -172l-275 -1298h-235l76 360h-199l-76 -360h-229zM78 0zM424 553h199l157 745q10 47 11 68q0 37 -17.5 49t-64.5 12q-31 0 -52.5 -5t-35 -18t-22.5 -39 t-17 -67zM618 1751q0 14 3 29.5t7 37.5l17 82q8 45 21.5 73t36 43t56 19.5t82.5 4.5q80 0 113 -12.5t33 -59.5q0 -29 -8 -68l-17 -82q-10 -47 -23.5 -73.5t-35 -42t-55 -19.5t-85.5 -4q-78 0 -111.5 12.5t-33.5 59.5zM712 1798q0 -20 15.5 -25.5t54.5 -5.5q49 0 68.5 9.5 t27.5 50.5l12 65q4 20 5 27q0 23 -16.5 28t-57.5 5q-47 0 -65.5 -9.5t-26.5 -50.5l-13 -65q-2 -10 -3 -16.5t-1 -12.5z" />
<glyph unicode="&#xc6;" horiz-adv-x="999" d="M78 0l272 1288q25 113 52.5 178.5t70.5 99t109.5 43t167.5 9.5h495l-41 -197h-219l-49 -233h213l-41 -189h-213l-170 -798h221l-41 -201h-450l75 360h-147l-76 -360h-229zM424 553h147l185 868h-49q-31 0 -51.5 -4t-34 -17.5t-22.5 -38t-17 -65.5z" />
<glyph unicode="&#xc7;" horiz-adv-x="808" d="M117 0zM117 139q0 68 24 183l207 976q25 111 53.5 178.5t74.5 103.5t113.5 47t168.5 11q74 0 127 -6t86 -22.5t48 -49t15 -83.5q0 -68 -24 -179l-78 -366h-227l77 366q4 25 8.5 43.5t4.5 32.5q0 33 -19.5 43t-62.5 10q-33 0 -53.5 -5t-35 -19t-23.5 -40t-17 -65 l-207 -976q-12 -53 -12 -78q0 -35 18 -45.5t66 -10.5q31 0 51 5.5t34.5 19.5t22.5 40t18 69l80 374h228l-80 -374q-25 -113 -52.5 -180.5t-71.5 -103.5t-110.5 -47t-165.5 -11q-78 0 -133 6t-89 22.5t-49 48t-15 82.5zM127 -379l174 338h209l-240 -338h-143z" />
<glyph unicode="&#xc8;" horiz-adv-x="602" d="M90 0l342 1618h461l-41 -195h-225l-49 -235h219l-41 -187h-219l-168 -798h227l-43 -203h-463zM90 0zM514 2040h219l61 -340h-151z" />
<glyph unicode="&#xc9;" horiz-adv-x="602" d="M90 0l342 1618h461l-41 -195h-225l-49 -235h219l-41 -187h-219l-168 -798h227l-43 -203h-463zM90 0zM563 1700l197 340h231l-262 -340h-166z" />
<glyph unicode="&#xca;" horiz-adv-x="602" d="M90 0l342 1618h461l-41 -195h-225l-49 -235h219l-41 -187h-219l-168 -798h227l-43 -203h-463zM90 0zM383 1700l283 340h178l133 -340h-143l-103 223l-196 -223h-152z" />
<glyph unicode="&#xcb;" horiz-adv-x="602" d="M90 0l342 1618h461l-41 -195h-225l-49 -235h219l-41 -187h-219l-168 -798h227l-43 -203h-463zM90 0zM411 1796l45 213h207l-45 -213h-207zM780 1796l45 213h209l-45 -213h-209z" />
<glyph unicode="&#xcc;" horiz-adv-x="425" d="M94 0l342 1618h236l-342 -1618h-236zM94 0zM408 2040h219l61 -340h-151z" />
<glyph unicode="&#xcd;" horiz-adv-x="425" d="M94 0l342 1618h236l-342 -1618h-236zM94 0zM455 1700l197 340h231l-262 -340h-166z" />
<glyph unicode="&#xce;" horiz-adv-x="425" d="M94 0l342 1618h236l-342 -1618h-236zM94 0zM278 1700l283 340h178l133 -340h-143l-103 223l-196 -223h-152z" />
<glyph unicode="&#xcf;" horiz-adv-x="425" d="M94 0l342 1618h236l-342 -1618h-236zM94 0zM307 1796l45 213h207l-45 -213h-207zM676 1796l45 213h209l-45 -213h-209z" />
<glyph unicode="&#xd0;" horiz-adv-x="882" d="M133 0l211 1001h-55l41 187h55l90 430h338q78 0 133 -6t90 -22.5t50.5 -48.5t15.5 -83q0 -61 -23 -170l-202 -956q-23 -109 -50.5 -174.5t-71.5 -100t-112 -46t-172 -11.5h-338zM406 205h114q33 0 54.5 6t35 20.5t22.5 39t17 61.5l203 956q4 25 7 43.5t3 32.5 q0 35 -19.5 43t-66.5 8h-114l-48 -227h111l-41 -187h-111z" />
<glyph unicode="&#xd1;" horiz-adv-x="888" d="M90 0l342 1618h256l19 -1038h8l219 1038h205l-342 -1618h-248l-35 1010h-8l-213 -1010h-203zM90 0zM526 1798l31 149q29 23 68.5 38.5t82.5 15.5t80 -10.5t72 -21.5t72 -21.5t80 -10.5q94 0 157 74l-32 -147q-29 -27 -69 -43.5t-87 -16.5q-43 0 -80 10.5t-71.5 23.5 t-71.5 23.5t-80 10.5q-51 0 -87 -20.5t-65 -53.5z" />
<glyph unicode="&#xd2;" d="M117 0zM117 139q0 68 24 183l207 976q25 113 52.5 179.5t71.5 102.5t112.5 47t173.5 11q78 0 133 -6t90 -22.5t50.5 -49t15.5 -83.5q0 -68 -25 -179l-207 -976q-25 -113 -52.5 -180.5t-72.5 -103.5t-113.5 -47t-173.5 -11q-78 0 -133 6t-89 22.5t-49 48t-15 82.5z M365 244q0 -35 18 -45.5t66 -10.5q33 0 54 5.5t34.5 20.5t22.5 41t18 67l206 976q4 25 8.5 43.5t4.5 32.5q0 35 -19.5 44t-64.5 9q-33 0 -53.5 -5t-35 -19t-23.5 -40t-17 -65l-207 -976q-12 -53 -12 -78zM604 2040h219l61 -340h-151z" />
<glyph unicode="&#xd3;" d="M117 0zM117 139q0 68 24 183l207 976q25 113 52.5 179.5t71.5 102.5t112.5 47t173.5 11q78 0 133 -6t90 -22.5t50.5 -49t15.5 -83.5q0 -68 -25 -179l-207 -976q-25 -113 -52.5 -180.5t-72.5 -103.5t-113.5 -47t-173.5 -11q-78 0 -133 6t-89 22.5t-49 48t-15 82.5z M365 244q0 -35 18 -45.5t66 -10.5q33 0 54 5.5t34.5 20.5t22.5 41t18 67l206 976q4 25 8.5 43.5t4.5 32.5q0 35 -19.5 44t-64.5 9q-33 0 -53.5 -5t-35 -19t-23.5 -40t-17 -65l-207 -976q-12 -53 -12 -78zM653 1700l197 340h231l-262 -340h-166z" />
<glyph unicode="&#xd4;" d="M117 0zM117 139q0 68 24 183l207 976q25 113 52.5 179.5t71.5 102.5t112.5 47t173.5 11q78 0 133 -6t90 -22.5t50.5 -49t15.5 -83.5q0 -68 -25 -179l-207 -976q-25 -113 -52.5 -180.5t-72.5 -103.5t-113.5 -47t-173.5 -11q-78 0 -133 6t-89 22.5t-49 48t-15 82.5z M365 244q0 -35 18 -45.5t66 -10.5q33 0 54 5.5t34.5 20.5t22.5 41t18 67l206 976q4 25 8.5 43.5t4.5 32.5q0 35 -19.5 44t-64.5 9q-33 0 -53.5 -5t-35 -19t-23.5 -40t-17 -65l-207 -976q-12 -53 -12 -78zM471 1700l283 340h178l133 -340h-143l-103 223l-196 -223h-152z" />
<glyph unicode="&#xd5;" d="M117 0zM117 139q0 68 24 183l207 976q25 113 52.5 179.5t71.5 102.5t112.5 47t173.5 11q78 0 133 -6t90 -22.5t50.5 -49t15.5 -83.5q0 -68 -25 -179l-207 -976q-25 -113 -52.5 -180.5t-72.5 -103.5t-113.5 -47t-173.5 -11q-78 0 -133 6t-89 22.5t-49 48t-15 82.5z M365 244q0 -35 18 -45.5t66 -10.5q33 0 54 5.5t34.5 20.5t22.5 41t18 67l206 976q4 25 8.5 43.5t4.5 32.5q0 35 -19.5 44t-64.5 9q-33 0 -53.5 -5t-35 -19t-23.5 -40t-17 -65l-207 -976q-12 -53 -12 -78zM491 1798l31 149q29 23 68.5 38.5t82.5 15.5t80 -10.5t72 -21.5 t72 -21.5t80 -10.5q94 0 157 74l-32 -147q-29 -27 -69 -43.5t-87 -16.5q-43 0 -80 10.5t-71.5 23.5t-71.5 23.5t-80 10.5q-51 0 -87 -20.5t-65 -53.5z" />
<glyph unicode="&#xd6;" d="M117 0zM117 139q0 68 24 183l207 976q25 113 52.5 179.5t71.5 102.5t112.5 47t173.5 11q78 0 133 -6t90 -22.5t50.5 -49t15.5 -83.5q0 -68 -25 -179l-207 -976q-25 -113 -52.5 -180.5t-72.5 -103.5t-113.5 -47t-173.5 -11q-78 0 -133 6t-89 22.5t-49 48t-15 82.5z M365 244q0 -35 18 -45.5t66 -10.5q33 0 54 5.5t34.5 20.5t22.5 41t18 67l206 976q4 25 8.5 43.5t4.5 32.5q0 35 -19.5 44t-64.5 9q-33 0 -53.5 -5t-35 -19t-23.5 -40t-17 -65l-207 -976q-12 -53 -12 -78zM500 1796l45 213h207l-45 -213h-207zM869 1796l45 213h209l-45 -213 h-209z" />
<glyph unicode="&#xd7;" horiz-adv-x="989" d="M258 588l293 241l-180 230l143 119l180 -230l279 230l110 -140l-278 -229l174 -221l-145 -119l-175 221l-290 -241z" />
<glyph unicode="&#xd8;" d="M43 -141l94 190q-20 33 -20 94q-2 35 5 79t19 100l207 976q25 113 52.5 179.5t71.5 102.5t112.5 47t173.5 11q47 0 85 -2t70 -6l64 131h143l-94 -192q20 -33 21 -94q0 -35 -7.5 -78t-17.5 -99l-207 -976q-25 -113 -52.5 -180.5t-72.5 -103.5t-113.5 -47t-173.5 -11 q-47 0 -84.5 3t-70.5 7l-62 -131h-143zM367 225q4 -23 23.5 -30t58.5 -7q33 0 54 5.5t34.5 20.5t22.5 41t18 67l124 587zM457 702l338 687q-4 23 -22.5 30.5t-59.5 7.5q-33 0 -53.5 -5t-35 -19t-23.5 -40t-17 -65z" />
<glyph unicode="&#xd9;" horiz-adv-x="829" d="M125 0zM125 143q0 68 25 179l274 1296h235l-274 -1296q-12 -49 -12 -76q0 -35 19.5 -45.5t66.5 -10.5q31 0 51 5.5t33.5 18.5t22.5 39t20 69l274 1296h230l-275 -1296q-25 -113 -52.5 -180.5t-72.5 -103.5t-112.5 -47t-167.5 -11q-78 0 -131.5 6t-88 23.5t-50 49 t-15.5 84.5zM608 2040h219l61 -340h-151z" />
<glyph unicode="&#xda;" horiz-adv-x="829" d="M125 0zM125 143q0 68 25 179l274 1296h235l-274 -1296q-12 -49 -12 -76q0 -35 19.5 -45.5t66.5 -10.5q31 0 51 5.5t33.5 18.5t22.5 39t20 69l274 1296h230l-275 -1296q-25 -113 -52.5 -180.5t-72.5 -103.5t-112.5 -47t-167.5 -11q-78 0 -131.5 6t-88 23.5t-50 49 t-15.5 84.5zM657 1700l197 340h231l-262 -340h-166z" />
<glyph unicode="&#xdb;" horiz-adv-x="829" d="M125 0zM125 143q0 68 25 179l274 1296h235l-274 -1296q-12 -49 -12 -76q0 -35 19.5 -45.5t66.5 -10.5q31 0 51 5.5t33.5 18.5t22.5 39t20 69l274 1296h230l-275 -1296q-25 -113 -52.5 -180.5t-72.5 -103.5t-112.5 -47t-167.5 -11q-78 0 -131.5 6t-88 23.5t-50 49 t-15.5 84.5zM475 1700l283 340h178l133 -340h-143l-103 223l-196 -223h-152z" />
<glyph unicode="&#xdc;" horiz-adv-x="829" d="M125 0zM125 143q0 68 25 179l274 1296h235l-274 -1296q-12 -49 -12 -76q0 -35 19.5 -45.5t66.5 -10.5q31 0 51 5.5t33.5 18.5t22.5 39t20 69l274 1296h230l-275 -1296q-25 -113 -52.5 -180.5t-72.5 -103.5t-112.5 -47t-167.5 -11q-78 0 -131.5 6t-88 23.5t-50 49 t-15.5 84.5zM504 1796l45 213h207l-45 -213h-207zM873 1796l45 213h209l-45 -213h-209z" />
<glyph unicode="&#xdd;" horiz-adv-x="724" d="M240 0l120 571l-12 1047h230l-35 -731h8l274 731h234l-463 -1047l-121 -571h-235zM240 0zM604 1700l197 340h231l-262 -340h-166z" />
<glyph unicode="&#xde;" horiz-adv-x="813" d="M90 0l342 1618h236l-50 -236h101q80 0 135 -6t90 -23.5t50.5 -48t15.5 -81.5q0 -35 -6.5 -76t-16.5 -94l-74 -346q-23 -109 -50 -173.5t-72.5 -99.5t-113 -46t-171.5 -11h-100l-80 -377h-236zM444 567h101q33 0 53 4t33.5 18.5t23 40t19.5 68.5l76 355q12 51 12 80 q0 31 -19.5 38t-66.5 7h-101z" />
<glyph unicode="&#xdf;" horiz-adv-x="808" d="M78 0l291 1370q16 80 45.5 132t73.5 83t103.5 42t137.5 11q150 0 220.5 -33.5t70.5 -134.5q0 -43 -12 -100l-58 -268q-14 -63 -33.5 -103.5t-44 -65t-50 -35.5t-52.5 -17l-2 -9q49 -10 82 -40.5t33 -106.5q0 -43 -13 -104l-65 -304q-23 -98 -47.5 -159.5t-64.5 -96 t-99 -48t-150 -13.5h-106l43 209h80q49 0 74.5 22.5t39.5 85.5l74 345q4 16 6 29.5t2 23.5q0 35 -20.5 46t-67.5 11h-75l43 209h59q59 0 84 23.5t37 76.5l59 279q6 31 6 51q0 29 -18.5 40t-65.5 11q-66 0 -88 -20.5t-35 -81.5l-288 -1360h-209z" />
<glyph unicode="&#xe0;" horiz-adv-x="727" d="M102 0zM102 100q0 41 17 117l63 297q23 111 76 162t156 51h39q70 0 97.5 -5t39.5 -13l53 254q8 33 8 59q0 29 -18.5 38t-59.5 9q-53 0 -73.5 -22.5t-32.5 -83.5l-25 -121h-190l31 145q18 86 40.5 137.5t58.5 79t91 35.5t139 8q139 0 198.5 -23.5t59.5 -107.5 q0 -25 -5 -56.5t-13 -72.5l-209 -987q-41 -10 -117.5 -15t-199.5 -5q-61 0 -103.5 4t-69 17t-39 36.5t-12.5 62.5zM309 197q0 -27 14.5 -36t55.5 -9q45 0 65.5 1t28.5 3l84 401q-20 12 -86 12q-31 0 -49.5 -5t-29.5 -17t-18 -33.5t-14 -52.5l-41 -193q-4 -23 -7 -40t-3 -31z M475 1649h219l61 -340h-151z" />
<glyph unicode="&#xe1;" horiz-adv-x="727" d="M102 0zM102 100q0 41 17 117l63 297q23 111 76 162t156 51h39q70 0 97.5 -5t39.5 -13l53 254q8 33 8 59q0 29 -18.5 38t-59.5 9q-53 0 -73.5 -22.5t-32.5 -83.5l-25 -121h-190l31 145q18 86 40.5 137.5t58.5 79t91 35.5t139 8q139 0 198.5 -23.5t59.5 -107.5 q0 -25 -5 -56.5t-13 -72.5l-209 -987q-41 -10 -117.5 -15t-199.5 -5q-61 0 -103.5 4t-69 17t-39 36.5t-12.5 62.5zM309 197q0 -27 14.5 -36t55.5 -9q45 0 65.5 1t28.5 3l84 401q-20 12 -86 12q-31 0 -49.5 -5t-29.5 -17t-18 -33.5t-14 -52.5l-41 -193q-4 -23 -7 -40t-3 -31z M524 1309l197 340h231l-262 -340h-166z" />
<glyph unicode="&#xe2;" horiz-adv-x="727" d="M102 0zM102 100q0 41 17 117l63 297q23 111 76 162t156 51h39q70 0 97.5 -5t39.5 -13l53 254q8 33 8 59q0 29 -18.5 38t-59.5 9q-53 0 -73.5 -22.5t-32.5 -83.5l-25 -121h-190l31 145q18 86 40.5 137.5t58.5 79t91 35.5t139 8q139 0 198.5 -23.5t59.5 -107.5 q0 -25 -5 -56.5t-13 -72.5l-209 -987q-41 -10 -117.5 -15t-199.5 -5q-61 0 -103.5 4t-69 17t-39 36.5t-12.5 62.5zM309 197q0 -27 14.5 -36t55.5 -9q45 0 65.5 1t28.5 3l84 401q-20 12 -86 12q-31 0 -49.5 -5t-29.5 -17t-18 -33.5t-14 -52.5l-41 -193q-4 -23 -7 -40t-3 -31z M342 1309l283 340h178l133 -340h-143l-103 223l-196 -223h-152z" />
<glyph unicode="&#xe3;" horiz-adv-x="727" d="M102 0zM102 100q0 41 17 117l63 297q23 111 76 162t156 51h39q70 0 97.5 -5t39.5 -13l53 254q8 33 8 59q0 29 -18.5 38t-59.5 9q-53 0 -73.5 -22.5t-32.5 -83.5l-25 -121h-190l31 145q18 86 40.5 137.5t58.5 79t91 35.5t139 8q139 0 198.5 -23.5t59.5 -107.5 q0 -25 -5 -56.5t-13 -72.5l-209 -987q-41 -10 -117.5 -15t-199.5 -5q-61 0 -103.5 4t-69 17t-39 36.5t-12.5 62.5zM309 197q0 -27 14.5 -36t55.5 -9q45 0 65.5 1t28.5 3l84 401q-20 12 -86 12q-31 0 -49.5 -5t-29.5 -17t-18 -33.5t-14 -52.5l-41 -193q-4 -23 -7 -40t-3 -31z M366 1407l31 149q29 23 68.5 38.5t82.5 15.5t80 -10.5t72 -21.5t72 -21.5t80 -10.5q94 0 157 74l-32 -147q-29 -27 -69 -43.5t-87 -16.5q-43 0 -80 10.5t-71.5 23.5t-71.5 23.5t-80 10.5q-51 0 -87 -20.5t-65 -53.5z" />
<glyph unicode="&#xe4;" horiz-adv-x="727" d="M102 0zM102 100q0 41 17 117l63 297q23 111 76 162t156 51h39q70 0 97.5 -5t39.5 -13l53 254q8 33 8 59q0 29 -18.5 38t-59.5 9q-53 0 -73.5 -22.5t-32.5 -83.5l-25 -121h-190l31 145q18 86 40.5 137.5t58.5 79t91 35.5t139 8q139 0 198.5 -23.5t59.5 -107.5 q0 -25 -5 -56.5t-13 -72.5l-209 -987q-41 -10 -117.5 -15t-199.5 -5q-61 0 -103.5 4t-69 17t-39 36.5t-12.5 62.5zM309 197q0 -27 14.5 -36t55.5 -9q45 0 65.5 1t28.5 3l84 401q-20 12 -86 12q-31 0 -49.5 -5t-29.5 -17t-18 -33.5t-14 -52.5l-41 -193q-4 -23 -7 -40t-3 -31z M375 1405l45 213h207l-45 -213h-207zM744 1405l45 213h209l-45 -213h-209z" />
<glyph unicode="&#xe5;" horiz-adv-x="727" d="M102 0zM102 100q0 41 17 117l63 297q23 111 76 162t156 51h39q70 0 97.5 -5t39.5 -13l53 254q8 33 8 59q0 29 -18.5 38t-59.5 9q-53 0 -73.5 -22.5t-32.5 -83.5l-25 -121h-190l31 145q18 86 40.5 137.5t58.5 79t91 35.5t139 8q139 0 198.5 -23.5t59.5 -107.5 q0 -25 -5 -56.5t-13 -72.5l-209 -987q-41 -10 -117.5 -15t-199.5 -5q-61 0 -103.5 4t-69 17t-39 36.5t-12.5 62.5zM309 197q0 -27 14.5 -36t55.5 -9q45 0 65.5 1t28.5 3l84 401q-20 12 -86 12q-31 0 -49.5 -5t-29.5 -17t-18 -33.5t-14 -52.5l-41 -193q-4 -23 -7 -40t-3 -31z M489 1360q0 14 3 29.5t7 37.5l17 82q8 45 21.5 73t36 43t56 19.5t82.5 4.5q80 0 113 -12.5t33 -59.5q0 -29 -8 -68l-17 -82q-10 -47 -23.5 -73.5t-35 -42t-55 -19.5t-85.5 -4q-78 0 -111.5 12.5t-33.5 59.5zM583 1407q0 -20 15.5 -25.5t54.5 -5.5q49 0 68.5 9.5t27.5 50.5 l12 65q4 20 5 27q0 23 -16.5 28t-57.5 5q-47 0 -65.5 -9.5t-26.5 -50.5l-13 -65q-2 -10 -3 -16.5t-1 -12.5z" />
<glyph unicode="&#xe6;" horiz-adv-x="1087" d="M102 100q0 41 17 117l63 297q23 111 76 162t156 51h39q70 0 97.5 -5t39.5 -13l53 254q8 33 8 59q0 29 -18.5 38t-59.5 9q-53 0 -73.5 -22.5t-32.5 -83.5l-25 -121h-190l31 145q18 86 40.5 137.5t58.5 79t91 35.5t139 8t123 -17.5t56 -45.5q29 29 76.5 46t129.5 17 q129 0 184.5 -22.5t55.5 -104.5q0 -51 -18 -133l-95 -446h-366l-64 -295q-6 -25 -6 -39q0 -27 16.5 -38t61.5 -11q57 0 75.5 18.5t30.5 75.5l35 166h191l-39 -178q-18 -86 -41 -137.5t-58.5 -79t-91 -35.5t-141.5 -8q-84 4 -125 19t-55 42q-31 -29 -81 -45t-136 -16 q-61 0 -104.5 4t-71 17t-40 36.5t-12.5 62.5zM309 197q0 -27 15.5 -36t56.5 -9q59 0 78.5 19t29.5 69l68 317q-20 12 -86 12q-31 0 -49.5 -5t-29.5 -17t-18 -33.5t-14 -52.5l-41 -193q-4 -23 -7 -40t-3 -31zM793 707h176l55 264q6 31 6 47q0 27 -15.5 36t-56.5 9 q-29 0 -47 -4t-30.5 -14.5t-19.5 -28t-13 -45.5z" />
<glyph unicode="&#xe7;" horiz-adv-x="714" d="M63 0zM64 -379l174 338h209l-240 -338h-143zM106 111q0 27 3.5 57.5t13.5 71.5l160 747q18 86 40.5 137.5t61.5 79t97.5 35.5t148.5 8q131 0 185 -25.5t54 -105.5q0 -27 -5 -60.5t-13 -68.5l-45 -215h-191l41 193q6 25 7 43q0 27 -16.5 35t-57.5 8q-59 0 -78.5 -16.5 t-30.5 -69.5l-151 -705q-6 -29 -6 -43q0 -29 17 -37t60 -8q53 0 74 19.5t31 68.5l67 318h191l-72 -338q-18 -86 -41.5 -138.5t-60.5 -79t-92.5 -34.5t-137.5 -8q-70 0 -117.5 5t-78.5 19t-44.5 40t-13.5 67z" />
<glyph unicode="&#xe8;" horiz-adv-x="718" d="M106 0zM106 111q0 27 3.5 57.5t13.5 71.5l160 747q18 86 40.5 137.5t60.5 79t97.5 35.5t149.5 8q129 0 184 -22.5t55 -104.5q0 -51 -18 -133l-94 -446h-365l-61 -289q-4 -16 -6 -28.5t-2 -22.5q0 -27 17 -35t58 -8q55 0 76 17.5t33 76.5l35 166h188l-39 -178 q-18 -86 -40.5 -137.5t-58.5 -79t-91.5 -35.5t-141.5 -8q-139 0 -196.5 23.5t-57.5 107.5zM428 709h176l55 262q6 31 7 49q0 27 -16.5 35t-57.5 8q-57 0 -76.5 -16.5t-32.5 -75.5zM471 1649h219l61 -340h-151z" />
<glyph unicode="&#xe9;" horiz-adv-x="718" d="M106 0zM106 111q0 27 3.5 57.5t13.5 71.5l160 747q18 86 40.5 137.5t60.5 79t97.5 35.5t149.5 8q129 0 184 -22.5t55 -104.5q0 -51 -18 -133l-94 -446h-365l-61 -289q-4 -16 -6 -28.5t-2 -22.5q0 -27 17 -35t58 -8q55 0 76 17.5t33 76.5l35 166h188l-39 -178 q-18 -86 -40.5 -137.5t-58.5 -79t-91.5 -35.5t-141.5 -8q-139 0 -196.5 23.5t-57.5 107.5zM428 709h176l55 262q6 31 7 49q0 27 -16.5 35t-57.5 8q-57 0 -76.5 -16.5t-32.5 -75.5zM520 1309l197 340h231l-262 -340h-166z" />
<glyph unicode="&#xea;" horiz-adv-x="718" d="M106 0zM106 111q0 27 3.5 57.5t13.5 71.5l160 747q18 86 40.5 137.5t60.5 79t97.5 35.5t149.5 8q129 0 184 -22.5t55 -104.5q0 -51 -18 -133l-94 -446h-365l-61 -289q-4 -16 -6 -28.5t-2 -22.5q0 -27 17 -35t58 -8q55 0 76 17.5t33 76.5l35 166h188l-39 -178 q-18 -86 -40.5 -137.5t-58.5 -79t-91.5 -35.5t-141.5 -8q-139 0 -196.5 23.5t-57.5 107.5zM338 1309l283 340h178l133 -340h-143l-103 223l-196 -223h-152zM428 709h176l55 262q6 31 7 49q0 27 -16.5 35t-57.5 8q-57 0 -76.5 -16.5t-32.5 -75.5z" />
<glyph unicode="&#xeb;" horiz-adv-x="718" d="M106 0zM106 111q0 27 3.5 57.5t13.5 71.5l160 747q18 86 40.5 137.5t60.5 79t97.5 35.5t149.5 8q129 0 184 -22.5t55 -104.5q0 -51 -18 -133l-94 -446h-365l-61 -289q-4 -16 -6 -28.5t-2 -22.5q0 -27 17 -35t58 -8q55 0 76 17.5t33 76.5l35 166h188l-39 -178 q-18 -86 -40.5 -137.5t-58.5 -79t-91.5 -35.5t-141.5 -8q-139 0 -196.5 23.5t-57.5 107.5zM371 1405l45 213h207l-45 -213h-207zM428 709h176l55 262q6 31 7 49q0 27 -16.5 35t-57.5 8q-57 0 -76.5 -16.5t-32.5 -75.5zM740 1405l45 213h209l-45 -213h-209z" />
<glyph unicode="&#xec;" horiz-adv-x="411" d="M108 0l260 1227h207l-260 -1227h-207zM109 0zM328 1649h219l61 -340h-151z" />
<glyph unicode="&#xed;" horiz-adv-x="432" d="M94 0l260 1227h207l-260 -1227h-207zM94 0zM358 1309l197 340h231l-262 -340h-166z" />
<glyph unicode="&#xee;" horiz-adv-x="544" d="M168 0l260 1227h207l-260 -1227h-207zM168 0zM254 1309l283 340h178l133 -340h-143l-103 223l-196 -223h-152z" />
<glyph unicode="&#xef;" horiz-adv-x="579" d="M184 0l260 1227h207l-260 -1227h-207zM184 0zM299 1405l45 213h207l-45 -213h-207zM668 1405l45 213h209l-45 -213h-209z" />
<glyph unicode="&#xf0;" horiz-adv-x="737" d="M109 111q0 27 3 57.5t13 71.5l131 616q27 123 73 179.5t138 56.5q61 0 94 -16.5t72 -57.5q-2 12 -4 22.5t-7.5 24.5t-11.5 34.5t-18 53.5l-39 109l-166 -84l-31 98l162 80l-94 262h229l58 -166l155 78l31 -96l-154 -76l48 -129q33 -92 45 -153.5t14 -119.5 q0 -39 -6 -79.5t-17 -92.5l-116 -544q-18 -86 -41 -137.5t-61 -79t-96 -35.5t-151 -8q-139 0 -196 23.5t-57 107.5zM328 213q0 -29 17 -35t58 -6q29 0 48.5 6t33 22.5t21.5 45t18 71.5l109 510q-2 53 -14.5 81t-65.5 28q-55 0 -72.5 -35t-31.5 -104l-101 -478 q-8 -39 -14 -64.5t-6 -41.5z" />
<glyph unicode="&#xf1;" horiz-adv-x="778" d="M90 0l260 1227h195l-19 -82q33 45 84.5 68.5t128.5 23.5q94 0 136.5 -28.5t42.5 -104.5q0 -53 -15 -117l-209 -987h-209l205 965q2 10 3 17t1 15q0 51 -78 52q-41 0 -65.5 -17.5t-42.5 -46.5l-209 -985h-209zM90 0zM391 1407l31 149q29 23 68.5 38.5t82.5 15.5t80 -10.5 t72 -21.5t72 -21.5t80 -10.5q94 0 157 74l-32 -147q-29 -27 -69 -43.5t-87 -16.5q-43 0 -80 10.5t-71.5 23.5t-71.5 23.5t-80 10.5q-51 0 -87 -20.5t-65 -53.5z" />
<glyph unicode="&#xf2;" horiz-adv-x="735" d="M106 0zM106 111q0 27 3.5 57.5t13.5 71.5l160 747q18 86 40.5 137.5t60.5 79t97.5 35.5t149.5 8q137 0 195.5 -23.5t58.5 -107.5q0 -27 -4 -57.5t-13 -71.5l-159 -747q-18 -86 -41 -137.5t-62 -79t-97 -35.5t-149 -8q-139 0 -196.5 23.5t-57.5 107.5zM324 217 q0 -29 17 -37t60 -8q59 0 79 19.5t30 68.5l152 705q6 25 6 43q0 27 -17.5 35t-60.5 8q-57 0 -77.5 -17.5t-31.5 -68.5l-151 -705q-6 -29 -6 -43zM479 1649h219l61 -340h-151z" />
<glyph unicode="&#xf3;" horiz-adv-x="735" d="M106 0zM106 111q0 27 3.5 57.5t13.5 71.5l160 747q18 86 40.5 137.5t60.5 79t97.5 35.5t149.5 8q137 0 195.5 -23.5t58.5 -107.5q0 -27 -4 -57.5t-13 -71.5l-159 -747q-18 -86 -41 -137.5t-62 -79t-97 -35.5t-149 -8q-139 0 -196.5 23.5t-57.5 107.5zM324 217 q0 -29 17 -37t60 -8q59 0 79 19.5t30 68.5l152 705q6 25 6 43q0 27 -17.5 35t-60.5 8q-57 0 -77.5 -17.5t-31.5 -68.5l-151 -705q-6 -29 -6 -43zM528 1309l197 340h231l-262 -340h-166z" />
<glyph unicode="&#xf4;" horiz-adv-x="735" d="M106 0zM106 111q0 27 3.5 57.5t13.5 71.5l160 747q18 86 40.5 137.5t60.5 79t97.5 35.5t149.5 8q137 0 195.5 -23.5t58.5 -107.5q0 -27 -4 -57.5t-13 -71.5l-159 -747q-18 -86 -41 -137.5t-62 -79t-97 -35.5t-149 -8q-139 0 -196.5 23.5t-57.5 107.5zM324 217 q0 -29 17 -37t60 -8q59 0 79 19.5t30 68.5l152 705q6 25 6 43q0 27 -17.5 35t-60.5 8q-57 0 -77.5 -17.5t-31.5 -68.5l-151 -705q-6 -29 -6 -43zM346 1309l283 340h178l133 -340h-143l-103 223l-196 -223h-152z" />
<glyph unicode="&#xf5;" horiz-adv-x="735" d="M106 0zM106 111q0 27 3.5 57.5t13.5 71.5l160 747q18 86 40.5 137.5t60.5 79t97.5 35.5t149.5 8q137 0 195.5 -23.5t58.5 -107.5q0 -27 -4 -57.5t-13 -71.5l-159 -747q-18 -86 -41 -137.5t-62 -79t-97 -35.5t-149 -8q-139 0 -196.5 23.5t-57.5 107.5zM324 217 q0 -29 17 -37t60 -8q59 0 79 19.5t30 68.5l152 705q6 25 6 43q0 27 -17.5 35t-60.5 8q-57 0 -77.5 -17.5t-31.5 -68.5l-151 -705q-6 -29 -6 -43zM370 1407l31 149q29 23 68.5 38.5t82.5 15.5t80 -10.5t72 -21.5t72 -21.5t80 -10.5q94 0 157 74l-32 -147q-29 -27 -69 -43.5 t-87 -16.5q-43 0 -80 10.5t-71.5 23.5t-71.5 23.5t-80 10.5q-51 0 -87 -20.5t-65 -53.5z" />
<glyph unicode="&#xf6;" horiz-adv-x="735" d="M106 0zM106 111q0 27 3.5 57.5t13.5 71.5l160 747q18 86 40.5 137.5t60.5 79t97.5 35.5t149.5 8q137 0 195.5 -23.5t58.5 -107.5q0 -27 -4 -57.5t-13 -71.5l-159 -747q-18 -86 -41 -137.5t-62 -79t-97 -35.5t-149 -8q-139 0 -196.5 23.5t-57.5 107.5zM324 217 q0 -29 17 -37t60 -8q59 0 79 19.5t30 68.5l152 705q6 25 6 43q0 27 -17.5 35t-60.5 8q-57 0 -77.5 -17.5t-31.5 -68.5l-151 -705q-6 -29 -6 -43zM379 1405l45 213h207l-45 -213h-207zM748 1405l45 213h209l-45 -213h-209z" />
<glyph unicode="&#xf7;" horiz-adv-x="1015" d="M244 250zM244 725l39 186h833l-39 -186h-833zM450 250l57 270h215l-57 -270h-215zM635 1116l57 270h215l-57 -270h-215z" />
<glyph unicode="&#xf8;" horiz-adv-x="735" d="M43 -141l84 170q-23 25 -23 77q0 49 19 134l160 747q18 86 40.5 137.5t60.5 79t97.5 35.5t149.5 8q31 0 58.5 -1t51.5 -3l62 125h145l-86 -172q23 -25 23 -82q0 -45 -17 -127l-159 -747q-18 -86 -41 -137.5t-62 -79t-97 -35.5t-149 -8q-33 0 -59.5 1t-48.5 3l-64 -125 h-145zM348 176q10 -4 22.5 -4h30.5q59 0 79 19.5t30 68.5l88 412zM393 553l248 491q-23 6 -51 7q-57 0 -77.5 -17.5t-31.5 -68.5z" />
<glyph unicode="&#xf9;" horiz-adv-x="772" d="M115 0zM115 121q0 25 4 54.5t12 64.5l211 987h209l-207 -967q-2 -10 -3 -18.5t-1 -16.5q0 -27 16.5 -38t57.5 -11t64.5 17.5t41.5 46.5l211 987h211l-260 -1227h-197l17 80q-33 -45 -83 -67.5t-126 -22.5q-94 0 -136 27.5t-42 103.5zM498 1649h219l61 -340h-151z" />
<glyph unicode="&#xfa;" horiz-adv-x="772" d="M115 0zM115 121q0 25 4 54.5t12 64.5l211 987h209l-207 -967q-2 -10 -3 -18.5t-1 -16.5q0 -27 16.5 -38t57.5 -11t64.5 17.5t41.5 46.5l211 987h211l-260 -1227h-197l17 80q-33 -45 -83 -67.5t-126 -22.5q-94 0 -136 27.5t-42 103.5zM547 1309l197 340h231l-262 -340 h-166z" />
<glyph unicode="&#xfb;" horiz-adv-x="772" d="M115 0zM115 121q0 25 4 54.5t12 64.5l211 987h209l-207 -967q-2 -10 -3 -18.5t-1 -16.5q0 -27 16.5 -38t57.5 -11t64.5 17.5t41.5 46.5l211 987h211l-260 -1227h-197l17 80q-33 -45 -83 -67.5t-126 -22.5q-94 0 -136 27.5t-42 103.5zM364 1309l283 340h178l133 -340h-143 l-103 223l-196 -223h-152z" />
<glyph unicode="&#xfc;" horiz-adv-x="772" d="M115 0zM115 121q0 25 4 54.5t12 64.5l211 987h209l-207 -967q-2 -10 -3 -18.5t-1 -16.5q0 -27 16.5 -38t57.5 -11t64.5 17.5t41.5 46.5l211 987h211l-260 -1227h-197l17 80q-33 -45 -83 -67.5t-126 -22.5q-94 0 -136 27.5t-42 103.5zM393 1405l45 213h207l-45 -213h-207z M762 1405l45 213h209l-45 -213h-209z" />
<glyph unicode="&#xfd;" horiz-adv-x="778" d="M57 0zM57 -313l37 176h223q72 0 103 23.5t47 93.5l35 157q-33 -41 -81 -62.5t-118 -21.5q-92 0 -133 28t-41 103q0 43 16 119l197 924h209l-189 -885q-6 -29 -6 -47q0 -33 18.5 -44t59.5 -11q35 0 60.5 17t46.5 46l196 924h209l-266 -1247q-33 -150 -113 -221.5 t-235 -71.5h-275zM549 1309l197 340h231l-262 -340h-166z" />
<glyph unicode="&#xfe;" horiz-adv-x="751" d="M23 -313l409 1931h209l-98 -467q31 41 78 63.5t118 22.5q88 0 125 -26.5t37 -94.5q0 -47 -16 -129l-160 -747q-16 -74 -34.5 -122t-46.5 -77t-68.5 -40t-102.5 -11q-72 0 -107.5 21.5t-52.5 62.5l-82 -387h-208zM342 240q14 -63 80 -64q53 0 73.5 20.5t34.5 82.5l144 667 q6 31 6 53q0 29 -16.5 39.5t-57.5 10.5q-35 0 -60.5 -17.5t-43.5 -46.5z" />
<glyph unicode="&#xff;" horiz-adv-x="778" d="M57 0zM57 -313l37 176h223q72 0 103 23.5t47 93.5l35 157q-33 -41 -81 -62.5t-118 -21.5q-92 0 -133 28t-41 103q0 43 16 119l197 924h209l-189 -885q-6 -29 -6 -47q0 -33 18.5 -44t59.5 -11q35 0 60.5 17t46.5 46l196 924h209l-266 -1247q-33 -150 -113 -221.5 t-235 -71.5h-275zM397 1405l45 213h207l-45 -213h-207zM766 1405l45 213h209l-45 -213h-209z" />
<glyph unicode="&#x152;" horiz-adv-x="1034" d="M119 160q0 35 7 77t17 95l203 956q23 109 50.5 173.5t71.5 99t111.5 46t172.5 11.5h530l-41 -197h-225l-49 -233h217l-41 -189h-217l-170 -798h225l-41 -201h-530q-80 0 -135.5 6t-90 23.5t-50 48.5t-15.5 82zM369 258q0 -35 18.5 -45t65.5 -10h75l256 1210h-75 q-33 0 -53.5 -4t-34 -18.5t-22.5 -39t-17 -63.5l-203 -956q-10 -51 -10 -74z" />
<glyph unicode="&#x153;" horiz-adv-x="1099" d="M106 111q0 27 3.5 57.5t13.5 71.5l160 747q18 86 40.5 137.5t60.5 79t97.5 35.5t149.5 8q76 0 118 -18.5t58 -46.5q29 29 77 47t130 18q129 0 184 -22.5t55 -104.5q0 -51 -18 -133l-94 -446h-367l-63 -295q-6 -29 -6 -43q0 -29 18 -37t59 -8q53 0 75 17.5t34 76.5l35 166 h188l-39 -178q-18 -86 -40.5 -137.5t-58.5 -79t-91.5 -35.5t-141.5 -8q-145 0 -180 61q-31 -29 -80 -45t-123 -16q-139 0 -196.5 23.5t-57.5 107.5zM324 217q0 -29 17 -37t60 -8q59 0 79 19.5t30 68.5l152 705q6 25 6 43q0 27 -17.5 35t-60.5 8q-57 0 -77.5 -17.5 t-31.5 -68.5l-151 -705q-6 -29 -6 -43zM809 707h178l55 264q6 31 7 47q0 29 -16.5 37t-57.5 8q-53 0 -75.5 -17.5t-33.5 -68.5z" />
<glyph unicode="&#x178;" horiz-adv-x="724" d="M240 0l120 571l-12 1047h230l-35 -731h8l274 731h234l-463 -1047l-121 -571h-235zM240 0zM452 1796l45 213h207l-45 -213h-207zM821 1796l45 213h209l-45 -213h-209z" />
<glyph unicode="&#x2c6;" horiz-adv-x="655" d="M305 1309l283 340h178l133 -340h-143l-103 223l-196 -223h-152z" />
<glyph unicode="&#x2dc;" horiz-adv-x="788" d="M393 1407l31 149q29 23 68.5 38.5t82.5 15.5t80 -10.5t72 -21.5t72 -21.5t80 -10.5q94 0 157 74l-32 -147q-29 -27 -69 -43.5t-87 -16.5q-43 0 -80 10.5t-71.5 23.5t-71.5 23.5t-80 10.5q-51 0 -87 -20.5t-65 -53.5z" />
<glyph unicode="&#x2000;" horiz-adv-x="1020" />
<glyph unicode="&#x2001;" horiz-adv-x="2040" />
<glyph unicode="&#x2002;" horiz-adv-x="1020" />
<glyph unicode="&#x2003;" horiz-adv-x="2040" />
<glyph unicode="&#x2004;" horiz-adv-x="680" />
<glyph unicode="&#x2005;" horiz-adv-x="510" />
<glyph unicode="&#x2006;" horiz-adv-x="340" />
<glyph unicode="&#x2007;" horiz-adv-x="340" />
<glyph unicode="&#x2008;" horiz-adv-x="255" />
<glyph unicode="&#x2009;" horiz-adv-x="408" />
<glyph unicode="&#x200a;" horiz-adv-x="113" />
<glyph unicode="&#x2010;" horiz-adv-x="421" d="M168 590l39 184h334l-39 -184h-334z" />
<glyph unicode="&#x2011;" horiz-adv-x="421" d="M168 590l39 184h334l-39 -184h-334z" />
<glyph unicode="&#x2012;" horiz-adv-x="421" d="M168 590l39 184h334l-39 -184h-334z" />
<glyph unicode="&#x2013;" horiz-adv-x="727" d="M168 590l39 184h641l-39 -184h-641z" />
<glyph unicode="&#x2014;" horiz-adv-x="1191" d="M168 590l39 184h1106l-39 -184h-1106z" />
<glyph unicode="&#x2018;" horiz-adv-x="395" d="M369 1319l55 256q12 55 27.5 98t43 73t69.5 44t108 14h16l-20 -96h-27q-35 0 -55.5 -20.5t-30.5 -75.5l-6 -25h92l-57 -268h-215z" />
<glyph unicode="&#x2019;" horiz-adv-x="395" d="M360 1278l21 96h27q33 0 52 16.5t29 59.5l11 45h-92l57 270h215l-66 -309q-18 -86 -71.5 -132t-159.5 -46h-23z" />
<glyph unicode="&#x201a;" horiz-adv-x="395" d="M43 -217l20 96h27q33 0 52.5 16.5t29.5 59.5l10 45h-92l57 270h215l-67 -309q-18 -86 -69.5 -132t-159.5 -46h-23z" />
<glyph unicode="&#x201c;" horiz-adv-x="790" d="M369 1319l55 256q12 55 27.5 98t43 73t69.5 44t108 14h16l-20 -96h-27q-35 0 -55.5 -20.5t-30.5 -75.5l-6 -25h92l-57 -268h-215zM369 1319zM764 1319l55 256q12 55 27.5 98t43 73t69.5 44t108 14h16l-20 -96h-27q-35 0 -55.5 -20.5t-30.5 -75.5l-6 -25h92l-57 -268h-215 z" />
<glyph unicode="&#x201d;" horiz-adv-x="790" d="M360 1278l21 96h27q33 0 52 16.5t29 59.5l11 45h-92l57 270h215l-66 -309q-18 -86 -71.5 -132t-159.5 -46h-23zM360 1278zM755 1278l21 96h27q33 0 52 16.5t29 59.5l11 45h-92l57 270h215l-66 -309q-18 -86 -71.5 -132t-159.5 -46h-23z" />
<glyph unicode="&#x201e;" horiz-adv-x="790" d="M43 0zM43 -217l20 96h27q33 0 52.5 16.5t29.5 59.5l10 45h-92l57 270h215l-67 -309q-18 -86 -69.5 -132t-159.5 -46h-23zM438 -217l20 96h27q33 0 52.5 16.5t29.5 59.5l10 45h-92l57 270h215l-67 -309q-18 -86 -69.5 -132t-159.5 -46h-23z" />
<glyph unicode="&#x2022;" horiz-adv-x="663" d="M242 731q0 23 5 58.5t21 115.5q16 78 38 124t55.5 70.5t85 32t128.5 7.5q119 0 169.5 -20.5t50.5 -94.5q0 -23 -6.5 -59.5t-22.5 -118.5q-16 -78 -35.5 -125t-53.5 -71.5t-85 -33t-129 -8.5q-59 0 -101.5 4t-69 17.5t-38.5 38t-12 63.5z" />
<glyph unicode="&#x2026;" horiz-adv-x="1581" d="M96 0l57 270h215l-57 -270h-215zM96 0zM682 0l57 270h215l-57 -270h-215zM1268 0l57 270h215l-57 -270h-215z" />
<glyph unicode="&#x202f;" horiz-adv-x="408" />
<glyph unicode="&#x2039;" horiz-adv-x="479" d="M219 668l35 170l367 215l-35 -170l-234 -133l174 -144l-34 -153z" />
<glyph unicode="&#x203a;" horiz-adv-x="479" d="M176 453l35 170l233 133l-174 143l35 154l273 -215l-35 -170z" />
<glyph unicode="&#x205f;" horiz-adv-x="510" />
<glyph unicode="&#x20ac;" horiz-adv-x="847" d="M168 573l55 146h56l36 176h-79l57 147h55l53 256q23 111 52.5 178.5t75.5 103.5t114 47t168 11q74 0 127 -6t86 -22.5t48 -49t15 -83.5q0 -68 -24 -179l-21 -98h-227l23 105q4 23 6 41t4 30q0 35 -18.5 46.5t-63.5 11.5q-37 0 -59.5 -8.5t-36 -27t-21.5 -47t-16 -71.5 l-49 -238h381l-74 -147h-340l-37 -176h291l-74 -146h-248l-49 -235q-8 -35 -13 -60.5t-3 -44.5q0 -33 17.5 -42t64.5 -9q33 0 53 5.5t33.5 19.5t22.5 39.5t18 66.5l22 109h228l-21 -100q-23 -113 -51.5 -180.5t-73.5 -103.5t-110.5 -47t-163.5 -11q-78 0 -133.5 6t-89 22.5 t-49 48t-15.5 82.5q0 68 25 183l53 251h-80z" />
<glyph unicode="&#x2122;" horiz-adv-x="1208" d="M348 801l152 712h-113l21 105h380l-20 -105h-113l-151 -712h-156zM694 801l172 817h207l-24 -553h6l211 553h204l-172 -817h-122l120 573h-10l-223 -573h-133l18 579h-8l-123 -579h-123z" />
<glyph unicode="&#x25fc;" horiz-adv-x="1228" d="M0 0v1229h1229v-1229h-1229z" />
<glyph unicode="&#xfb01;" horiz-adv-x="892" d="M102 0l224 1057h-76l37 170h75l27 131q29 135 111 197.5t241 62.5h66l-33 -156h-51q-102 0 -127 -114l-25 -121h156l-37 -170h-155l-224 -1057h-209zM102 0zM590 0l260 1227h207l-260 -1227h-207zM887 1405l45 213h207l-45 -213h-207z" />
<glyph unicode="&#xfb02;" horiz-adv-x="886" d="M102 0l224 1057h-76l37 170h75l27 131q29 135 111 197.5t241 62.5h66l-33 -156h-51q-102 0 -127 -114l-25 -121h156l-37 -170h-155l-224 -1057h-209zM102 0zM586 0l342 1618h209l-342 -1618h-209z" />
</font>
</defs>
</svg>
